<?xml version="1.0" encoding="utf-8"?>
<!-- Generator: Adobe Illustrator 18.1.1, SVG Export Plug-In . SVG Version: 6.00 Build 0)  -->
<svg version="1.1" id="Layer_1" xmlns="http://www.w3.org/2000/svg" xmlns:xlink="http://www.w3.org/1999/xlink" x="0px" y="0px"
	 viewBox="0 0 556 560" enable-background="new 0 0 556 560" xml:space="preserve">
<path id="path-1" fill="#0047B2" d="M278,485.3c-17.3,0-34.7-1.8-51.1-4.4l-119.6,72.4V432.4C45.1,388.4,4.7,321.3,4.7,245.8
	C4.7,113.8,126.9,6.7,278,6.7s273.3,107.1,273.3,239.1S429.1,485.3,278,485.3z M278,41.3c-132,0-239.1,92-239.1,204.9
	c0,69.3,40.4,130.7,102.2,168l-0.9,79.1l80-48.4c18.7,4,37.8,6.2,57.8,6.2c132,0,239.1-92,239.1-204.9S410,41.3,278,41.3z
	 M397.6,229.3H158.4c-9.3,0-16.9-7.6-16.9-16.9c0-9.3,7.6-16.9,16.9-16.9h239.1c9.3,0,16.9,7.6,16.9,16.9
	C414.9,221.3,406.9,229.3,397.6,229.3z M192.7,297.3h170.7c9.3,0,16.9,7.6,16.9,16.9c0,9.3-7.6,16.9-16.9,16.9H192.7
	c-9.3,0-16.9-7.6-16.9-16.9C175.3,305.3,183.3,297.3,192.7,297.3z"/>
</svg>
