<?xml version="1.0" encoding="utf-8"?>
<!-- Generator: Adobe Illustrator 18.1.1, SVG Export Plug-In . SVG Version: 6.00 Build 0)  -->
<svg version="1.1" id="Layer_1" xmlns="http://www.w3.org/2000/svg" xmlns:xlink="http://www.w3.org/1999/xlink" x="0px" y="0px"
	 viewBox="0 0 960 560" enable-background="new 0 0 960 560" xml:space="preserve">
<g>
	<g>
		<g>
			<path fill="#271CFF" d="M170,161.2c3.8-13.4,16-22.5,27.5-30.4"/>
			<g>
				<path fill="#0047B2" d="M168.4,168.5c4.3-13.8,16.1-22.5,27.5-30.4c1-0.7,1.4-6.1,1.7-7.3c0.3-1.2,0.5-6.6,1.5-7.3
					c-11.3,7.9-23.2,16.7-27.5,30.4C170.1,158.6,169.8,163.8,168.4,168.5L168.4,168.5z"/>
			</g>
		</g>
		<g>
			<path fill="#271CFF" d="M173.6,160.8c2.7,0,5.5,0.6,7.9,1.9"/>
			<g>
				<path fill="#0047B2" d="M172.7,161.5c2.6,0,5.1,0.6,7.5,1.8c0.5,0.3,1.3,0,1.9-0.2c0.1,0,1.3-0.6,0.9-0.8
					c-2.6-1.3-5.4-1.9-8.3-2c-0.6,0-1.6,0.1-2,0.5C172.1,161.1,172,161.4,172.7,161.5L172.7,161.5z"/>
			</g>
		</g>
		<g>
			<path fill="#271CFF" d="M181.8,159.5c2.7-5.3,6.8-10,11.7-13.4"/>
			<g>
				<path fill="#0047B2" d="M183.2,159.6c2.7-5.2,6.5-9.6,11.3-12.9c1.6-1.1-0.9-1.7-1.8-1c-5.1,3.6-9.3,8.2-12.2,13.8
					C179.8,160.7,182.7,160.5,183.2,159.6L183.2,159.6z"/>
			</g>
		</g>
		<g>
			<path fill="#271CFF" d="M193.6,145.9c0.1-1.4-0.4-2.9-1.4-4"/>
			<g>
				<path fill="#0047B2" d="M195.1,145.7c0.1-1.6-0.4-3.2-1.5-4.4c-0.8-0.8-3.5,0.2-2.7,1.2c0.9,1,1.3,2.2,1.2,3.5
					C192.1,147.4,195,146.9,195.1,145.7L195.1,145.7z"/>
			</g>
		</g>
		<g>
			<path fill="#271CFF" d="M192.3,141.8c1.6,0.6,3.2,1.4,4.5,2.6"/>
			<g>
				<path fill="#0047B2" d="M191.1,142.4c1.6,0.6,3,1.4,4.4,2.5c0.7,0.6,3.3-0.6,2.7-1.1c-1.4-1.1-3-2-4.7-2.7c-0.6-0.2-1.5,0-2,0.3
					C191.1,141.6,190.5,142.1,191.1,142.4L191.1,142.4z"/>
			</g>
		</g>
		<g>
			<path fill="#271CFF" d="M198.2,124.7c-0.3,6.4,0.2,12.8,0,19.2"/>
			<g>
				<path fill="#0047B2" d="M197.7,124.7c-0.3,6.4,0.1,12.8,0,19.2c0,0.6,1,0.6,1,0c0.1-6.4-0.3-12.8,0-19.2
					C198.7,124.1,197.7,124.1,197.7,124.7L197.7,124.7z"/>
			</g>
		</g>
		<g>
			<path fill="#271CFF" d="M193.4,142.7"/>
			<g>
				<path fill="#0047B2" d="M193.4,143.2c0.6,0,0.6-1,0-1C192.8,142.2,192.8,143.2,193.4,143.2L193.4,143.2z"/>
			</g>
		</g>
		<g>
			<path fill="#271CFF" d="M198.1,143.9"/>
			<g>
				<path fill="#0047B2" d="M198.1,144.4c0.6,0,0.6-1,0-1C197.5,143.4,197.5,144.4,198.1,144.4L198.1,144.4z"/>
			</g>
		</g>
		<g>
			<path fill="#271CFF" d="M198.1,144"/>
			<g>
				<path fill="#0047B2" d="M198.1,144.5c0.6,0,0.6-1,0-1C197.5,143.5,197.5,144.5,198.1,144.5L198.1,144.5z"/>
			</g>
		</g>
		<g>
			<path fill="#271CFF" d="M198,144"/>
			<g>
				<path fill="#0047B2" d="M198,144.5c0.6,0,0.6-1,0-1C197.3,143.5,197.3,144.5,198,144.5L198,144.5z"/>
			</g>
		</g>
		<g>
			<path fill="#271CFF" d="M197.8,144.1"/>
			<g>
				<path fill="#0047B2" d="M197.8,144.6c0.6,0,0.6-1,0-1C197.2,143.6,197.2,144.6,197.8,144.6L197.8,144.6z"/>
			</g>
		</g>
	</g>
	
		<text transform="matrix(1 0 0 1 201.2037 156.8488)" fill="#0047B2" stroke="#0047B2" stroke-miterlimit="10" font-family="'BrushScriptMT'" font-size="48">Jottly</text>
</g>
</svg>
