<?xml version="1.0" encoding="utf-8"?>
<!-- Generator: Adobe Illustrator 18.1.1, SVG Export Plug-In . SVG Version: 6.00 Build 0)  -->
<svg version="1.1" id="Layer_1" xmlns="http://www.w3.org/2000/svg" xmlns:xlink="http://www.w3.org/1999/xlink" x="0px" y="0px"
	 viewBox="0 0 121.5 54" enable-background="new 0 0 121.5 54" xml:space="preserve">
<g>
	<g>
		<g>
			<path fill="#271CFF" d="M2.6,43.9c3.8-13.4,16-22.5,27.5-30.4"/>
			<g>
				<path fill="#0047B2" d="M1,51.2c4.3-13.8,16.1-22.5,27.5-30.4c1-0.7,1.4-6.1,1.7-7.3s0.5-6.6,1.5-7.3
					C20.4,14.1,8.5,22.9,4.2,36.6C2.7,41.3,2.4,46.5,1,51.2L1,51.2z"/>
			</g>
		</g>
		<g>
			<path fill="#271CFF" d="M6.2,43.5c2.7,0,5.5,0.6,7.9,1.9"/>
			<g>
				<path fill="#0047B2" d="M5.3,44.2c2.6,0,5.1,0.6,7.5,1.8c0.5,0.3,1.3,0,1.9-0.2c0.1,0,1.3-0.6,0.9-0.8c-2.6-1.3-5.4-1.9-8.3-2
					c-0.6,0-1.6,0.1-2,0.5C4.7,43.8,4.6,44.1,5.3,44.2L5.3,44.2z"/>
			</g>
		</g>
		<g>
			<path fill="#271CFF" d="M14.4,42.2c2.7-5.3,6.8-10,11.7-13.4"/>
			<g>
				<path fill="#0047B2" d="M15.8,42.3c2.7-5.2,6.5-9.6,11.3-12.9c1.6-1.1-0.9-1.7-1.8-1C20.2,32,16,36.6,13.1,42.2
					C12.4,43.4,15.3,43.2,15.8,42.3L15.8,42.3z"/>
			</g>
		</g>
		<g>
			<path fill="#271CFF" d="M26.2,28.6c0.1-1.4-0.4-2.9-1.4-4"/>
			<g>
				<path fill="#0047B2" d="M27.7,28.4c0.1-1.6-0.4-3.2-1.5-4.4c-0.8-0.8-3.5,0.2-2.7,1.2c0.9,1,1.3,2.2,1.2,3.5
					C24.7,30.1,27.6,29.6,27.7,28.4L27.7,28.4z"/>
			</g>
		</g>
		<g>
			<path fill="#271CFF" d="M24.9,24.5c1.6,0.6,3.2,1.4,4.5,2.6"/>
			<g>
				<path fill="#0047B2" d="M23.7,25.1c1.6,0.6,3,1.4,4.4,2.5c0.7,0.6,3.3-0.6,2.7-1.1c-1.4-1.1-3-2-4.7-2.7c-0.6-0.2-1.5,0-2,0.3
					C23.7,24.3,23.1,24.8,23.7,25.1L23.7,25.1z"/>
			</g>
		</g>
		<g>
			<path fill="#271CFF" d="M30.8,7.4c-0.3,6.4,0.2,12.8,0,19.2"/>
			<g>
				<path fill="#0047B2" d="M30.3,7.4c-0.3,6.4,0.1,12.8,0,19.2c0,0.6,1,0.6,1,0c0.1-6.4-0.3-12.8,0-19.2
					C31.3,6.8,30.3,6.8,30.3,7.4L30.3,7.4z"/>
			</g>
		</g>
		<g>
			<path fill="#271CFF" d="M26,25.4"/>
			<g>
				<path fill="#0047B2" d="M26,25.9c0.6,0,0.6-1,0-1C25.4,24.9,25.4,25.9,26,25.9L26,25.9z"/>
			</g>
		</g>
		<g>
			<path fill="#271CFF" d="M30.7,26.6"/>
			<g>
				<path fill="#0047B2" d="M30.7,27.1c0.6,0,0.6-1,0-1S30.1,27.1,30.7,27.1L30.7,27.1z"/>
			</g>
		</g>
		<g>
			<path fill="#271CFF" d="M30.7,26.7"/>
			<g>
				<path fill="#0047B2" d="M30.7,27.2c0.6,0,0.6-1,0-1S30.1,27.2,30.7,27.2L30.7,27.2z"/>
			</g>
		</g>
		<g>
			<path fill="#271CFF" d="M30.6,26.7"/>
			<g>
				<path fill="#0047B2" d="M30.6,27.2c0.6,0,0.6-1,0-1C29.9,26.2,29.9,27.2,30.6,27.2L30.6,27.2z"/>
			</g>
		</g>
		<g>
			<path fill="#271CFF" d="M30.4,26.8"/>
			<g>
				<path fill="#0047B2" d="M30.4,27.3c0.6,0,0.6-1,0-1S29.8,27.3,30.4,27.3L30.4,27.3z"/>
			</g>
		</g>
	</g>
	<text transform="matrix(1 0 0 1 33.8037 39.5488)" fill="#0047B2" font-family="'BrushScriptMT'" font-size="48">Jottly</text>
	
		<text transform="matrix(1 0 0 1 33.8037 39.5488)" fill="none" stroke="#0047B2" stroke-miterlimit="10" font-family="'BrushScriptMT'" font-size="48">Jottly</text>
</g>
</svg>
