<?xml version="1.0" encoding="utf-8"?>
<!-- Generator: Adobe Illustrator 18.1.1, SVG Export Plug-In . SVG Version: 6.00 Build 0)  -->
<svg version="1.1" id="Layer_1" xmlns="http://www.w3.org/2000/svg" xmlns:xlink="http://www.w3.org/1999/xlink" x="0px" y="0px"
	 viewBox="0 0 612 792" enable-background="new 0 0 612 792" xml:space="preserve">
<g>
	<g>
		<path fill="#244FA2" d="M161.7,277.2c-1.9,1.3-3.9,2.7-5.8,4.1c-0.2,0.1-0.5,0.3-0.7,0.5C100.3,320.4,44,363.9,23.2,430.4
			C15.6,454,14.1,480.2,7,503.9c21.7-69.5,81.1-113.3,138.5-153.1c5-3.5,7-30,8.5-36.5c0.1,21.1,0.8,42.2,0.6,63.3
			c-6.4-4.7-13.6-8.6-21.2-11.7c-0.9-0.3-1.8-0.4-2.9-0.4c-5.4-0.6-13.5,3.4-10.2,7.4c4.5,5,6.5,11.1,6,17.6c0,0.2,0,0.4,0,0.7
			C102.1,409,82,431.5,68,458.6c-3.5,6,11.1,5,13.6,0.5c13.6-26.2,32.7-48.4,56.9-65c2-1.4,2.7-2.6,2.6-3.6c0.2-0.4,0.4-0.9,0.4-1.4
			c0.1-1.9,0.1-3.8-0.2-5.7c0.7,0.5,1.4,1.1,2.2,1.6c2.1,1.8,7.6,0.4,11-1.6c0.2,0,0.4,0.1,0.6,0.1c0.6,0,1.1-0.2,1.4-0.5
			c0,0,0.1,0,0.1,0c0.9,0,1.6-0.5,1.9-1.1c0.6-0.4,1.1-1,1.1-1.9c0.5-32.2-1.5-64.5,0-96.7c0-0.6-0.2-1.1-0.5-1.5
			C159.8,279.6,160.7,277.9,161.7,277.2z"/>
		<path fill="#244FA2" d="M80.6,472.7c-13.1-6.5-27.2-9.6-41.8-10.1c-3,0-8.1,0.5-10.1,2.5c-3,1.5-3.5,3,0,3.5
			c13.1,0,25.7,3,37.8,9.1c2.5,1.5,6.5,0,9.6-1C76.5,476.7,82.6,473.7,80.6,472.7z"/>
	</g>
	<g enable-background="new    ">
		<g>
			<path fill="#244FA2" d="M264.6,416.4l-31.4,17.7c-6.9,11.7-13.9,22.8-20.8,33.2c-7,10.4-13.1,19-18.5,25.9
				c-5.4,6.8-10.1,12-14,15.6c-3.9,3.6-6.8,5.4-8.7,5.4c-2.5,0-4.6-0.8-6.1-2.5c-1.6-1.7-2.4-3.7-2.4-6c0-8.5,4.8-19.1,14.3-31.9
				c9.6-12.8,24.7-26.4,45.4-40.8c9-17.2,16.4-32.9,22.2-47c5.8-14.1,10.3-26.1,13.3-36.1c3.1-10,5.2-18,6.4-24.1
				c1.2-6.1,1.8-9.9,1.8-11.6c0-3.4-1.3-5.1-3.9-5.1c-2.1,0-5.3,1.2-9.4,3.7c-4.1,2.4-8.6,6.1-13.4,10.9
				c-4.8,4.8-9.3,10.4-13.5,16.8c-4.2,6.3-8,13.4-11.4,21.2c-3.4,7.8-6.1,15.1-7.9,21.7c-1.9,6.6-2.8,11.9-2.8,15.9
				c0,1,0.2,3.3,0.5,6.7c0.7-1.1,1.6-2.4,2.6-4c1-1.6,2.3-3.2,3.9-4.8c1.6-1.7,3.2-3,5-4.1c1-0.8,2.2-1.4,3.7-1.9
				c1.4-0.5,2.1-0.5,2.1,0.2c0,0.5-2.2,3.4-6.7,8.9c-4.5,5.5-8.4,10.4-11.7,14.8c-1.9,2.5-4.4,4.9-7.6,7.1c-3.1,2.2-5.7,3.3-7.7,3.3
				c-2.4,0-3.9-1.1-4.7-3.3c-0.7-2.2-1.1-5.7-1.1-10.5c0-11.6,2-24.4,6-38.6c4-14.2,9.3-26.6,16-37.3c5.4-8.5,12.1-16.2,20-23.1
				c7.9-6.9,15.5-12.3,23-16.1c7.4-3.9,13.3-5.8,17.5-5.8c5.2,0,9.2,1.6,12,4.9c2.8,3.3,4.2,7.8,4.2,13.5c0,2.8-0.3,6-1,9.6
				c-0.7,3.5-1.5,7.1-2.5,10.7c-1,3.6-2.8,9.4-5.3,17.5c-2.5,8-4.2,13.3-5,15.9c-2.4,8.1-5.6,16.4-9.6,25c-4,8.5-9.6,19.9-16.9,33.9
				l24.1-13V416.4z"/>
		</g>
		<g>
			<path fill="#244FA2" d="M340.7,407.8v7.9c-5.2,4.7-9.4,7.9-12.5,9.4c-3.1,1.6-7.7,2.2-13.6,1.9c-10.2,12.1-19.2,18.2-27,18.2
				c-4.4,0-8.4-1.5-12-4.4c-3.6-2.9-6.5-6.9-8.7-11.9c-2.2-5-3.2-10.7-3.2-16.9c0-5,1.7-10.6,5-16.8c3.3-6.1,7.7-11.9,13-17.2
				s11-9.6,17.1-12.9c6.1-3.3,11.7-4.9,16.9-4.9c3.7,0,6.6,0.6,8.7,1.7c2.1,1.1,3.2,2.7,3.2,4.8c0,1.6-0.9,3.4-2.7,5.4
				c3,0.6,5,1.7,6.1,3.1c1.1,1.5,1.7,4.1,1.7,8c0,3.8-0.9,8.5-2.7,14.3c-1.8,5.7-4.2,11.1-7.3,16.2l2.1,2.1h1.8c1.3,0,2.7-0.3,4-1
				c1.3-0.7,2.5-1.4,3.5-2.1C335,412.1,337.3,410.4,340.7,407.8z M316.4,376.7c-6.5,3.9-12.1,7.5-16.8,10.7
				c-4.6,3.2-8.6,6.4-11.8,9.7c-3.2,3.3-5.4,6.6-6.5,9.9c-2,8.8-3,13.6-3,14.3c0,5.2,3.6,7.8,10.9,7.8c3.4,0,9-2.9,17-8.7
				c-1.3-3.7-2-7.2-2-10.6c0-5,1-10,3.1-15.2C309.4,389.4,312.4,383.4,316.4,376.7z"/>
		</g>
		<g>
			<path fill="#244FA2" d="M381.9,346.8h5.1c4.2-7.5,7.9-12.8,11.3-15.9c3.4-3.1,7.2-4.7,11.6-4.7c4.3,0,6.5,1,6.5,3
				c0,0.9-1.7,3.5-5.1,7.7c-3.4,4.2-5.9,7.7-7.7,10.5c2.7,0.3,5.1,0.6,7.1,0.8c2.1,0.2,3.7,0.4,4.9,0.6
				c-4.5,8.3-10.1,16.9-16.9,25.6c-2.2-0.2-4.1-0.3-5.5-0.4c-1.5-0.1-3-0.2-4.5-0.4c-1.5-0.1-3.4-0.3-5.6-0.4
				c-4.2,6.8-7.8,13-10.7,18.4c-2.9,5.4-5.1,10.3-6.6,14.8c-1.5,4.5-2.3,8.7-2.3,12.8c0,5.4,2.2,8.1,6.5,8.1c3,0,6.9-1.6,11.7-4.8
				c4.8-3.2,11.3-8.1,19.4-14.7v7.9c-21.2,23.1-37,34.6-47.1,34.6c-3.5,0-6.4-1.4-8.6-4.1c-2.2-2.8-3.2-6.3-3.2-10.6
				c0-2.9,0.6-6.4,1.8-10.4c1.2-4,3.4-10.1,6.6-18.2c-1.1,0.9-2.1,1.9-3.1,2.8c-1,0.9-1.9,1.7-2.7,2.5c-0.8,0.7-1.7,1.5-2.7,2.4
				c-0.9,0.8-1.9,1.7-2.8,2.5V409c8.3-6.9,18.3-19.1,30-36.5c-1.2-0.1-2.3-0.1-3.3-0.2c-1,0-2.2-0.1-3.7-0.1
				c-4.6,0-8.1,0.3-10.4,0.9c-0.9,0.2-1.8,0.5-2.7,0.8c-0.8,0.3-1.4,0.4-1.7,0.4c-0.3,0-0.5-0.2-0.5-0.7c0-2.6,1.6-6.5,4.8-11.7
				c2.6-4.4,5.1-7.7,7.4-9.8c2.3-2.1,5.2-3.6,8.5-4.3C371.2,347.1,375.9,346.8,381.9,346.8z"/>
		</g>
		<g>
			<path fill="#244FA2" d="M442.4,346.8h5.1c4.2-7.5,7.9-12.8,11.3-15.9c3.4-3.1,7.2-4.7,11.6-4.7c4.3,0,6.5,1,6.5,3
				c0,0.9-1.7,3.5-5.1,7.7c-3.4,4.2-5.9,7.7-7.7,10.5c2.7,0.3,5.1,0.6,7.1,0.8c2.1,0.2,3.7,0.4,4.9,0.6
				c-4.5,8.3-10.1,16.9-16.9,25.6c-2.2-0.2-4.1-0.3-5.5-0.4c-1.5-0.1-3-0.2-4.5-0.4c-1.5-0.1-3.4-0.3-5.6-0.4
				c-4.2,6.8-7.8,13-10.7,18.4c-2.9,5.4-5.1,10.3-6.6,14.8c-1.5,4.5-2.3,8.7-2.3,12.8c0,5.4,2.2,8.1,6.5,8.1c3,0,6.9-1.6,11.7-4.8
				c4.8-3.2,11.3-8.1,19.4-14.7v7.9c-21.2,23.1-37,34.6-47.1,34.6c-3.5,0-6.4-1.4-8.6-4.1c-2.2-2.8-3.2-6.3-3.2-10.6
				c0-2.9,0.6-6.4,1.8-10.4c1.2-4,3.4-10.1,6.6-18.2c-1.1,0.9-2.1,1.9-3.1,2.8c-1,0.9-1.9,1.7-2.7,2.5c-0.8,0.7-1.7,1.5-2.7,2.4
				c-0.9,0.8-1.9,1.7-2.8,2.5V409c8.3-6.9,18.3-19.1,30-36.5c-1.2-0.1-2.3-0.1-3.3-0.2c-1,0-2.2-0.1-3.7-0.1
				c-4.6,0-8.1,0.3-10.4,0.9c-0.9,0.2-1.8,0.5-2.7,0.8c-0.8,0.3-1.4,0.4-1.7,0.4c-0.3,0-0.5-0.2-0.5-0.7c0-2.6,1.6-6.5,4.8-11.7
				c2.6-4.4,5.1-7.7,7.4-9.8c2.3-2.1,5.2-3.6,8.5-4.3C431.6,347.1,436.3,346.8,442.4,346.8z"/>
		</g>
		<g>
			<path fill="#244FA2" d="M517.8,406.7v8.7c-16.5,21.8-29.8,32.7-40.1,32.7c-5.6,0-10-3-13.2-9.1c-3.2-6.1-4.8-14.1-4.8-24
				c0-8,1.9-17.6,5.7-28.6c3.8-11.1,8.8-22.3,15.2-33.6c6.3-11.4,12.9-21.3,19.7-29.8c6.8-8.5,13.1-14.4,18.9-17.8
				c2.4-1.4,4.2-2.1,5.5-2.1c1.7,0,2.8,0.7,3.3,2.2c0.5,1.5,0.8,4,0.8,7.5c0,10.9-4.4,24.4-13.3,40.3c-8.9,15.9-21.3,32.2-37.2,48.8
				c-0.8,4.1-1.2,7.2-1.2,9.4c0,5,1.1,9.1,3.2,12.3c2.2,3.1,5.2,4.7,9,4.7c2,0,4.1-0.8,6.4-2.3c2.3-1.5,4.7-3.4,7.2-5.7
				C505.6,418,510.5,413.5,517.8,406.7z M482.5,385.5c4.1-4,8-8.6,11.9-13.7c3.8-5.1,7.4-10.6,10.8-16.4c3.4-5.8,6-11.1,8-15.7
				c1.9-4.6,2.9-8.1,2.9-10.5c0-1.8-0.6-2.7-1.9-2.7c-0.5,0-1.4,0.4-2.7,1.3c-4.8,3.9-10.2,11.6-16.2,23.1
				C489.3,362.3,485,373.8,482.5,385.5z"/>
		</g>
		<g>
			<path fill="#244FA2" d="M568,412.6l-21,17.8c-10,8.7-16.7,13.1-20.1,13.1c-3.1,0-6.3-3.5-9.7-10.6c-3.4-7-5.1-13.2-5.1-18.5
				c0-4.5,0.7-8.3,2.1-11.4c1.4-3.1,3.8-7.1,7.1-12.1c4.8-6.7,9.4-12.4,13.8-17c4.4-4.6,8.3-8.2,11.7-10.8c3.4-2.6,5.7-3.8,7.1-3.8
				c2.1,0,4.2,1.1,6.2,3.3c2,2.2,3,4.5,3,6.8c0,1.5-1.1,3.9-3.2,7.2c-2.2,3.3-5.6,7.5-10.3,12.6c-4.7,5.1-11.2,11.2-19.5,18.2
				l-2.2,6.5c-0.6,1.3-0.9,2.4-0.9,3.3c0,2.1,1.1,3.2,3.2,3.2c2.2,0,7.4-2.8,15.5-8.4c8.1-5.6,17-13.1,26.5-22.5
				c3.7-3.7,6.8-7,9.2-9.8c2.4-2.8,4.6-5.5,6.6-8c2-2.5,3.6-4.3,4.9-5.6c1.3-1.3,2.5-1.9,3.5-2c2-0.2,3.5,0.6,4.6,2.5
				c1.1,1.9,1.7,4.7,1.7,8.4c0,2.1-0.9,4.8-2.8,8c-1.9,3.2-5.4,8.6-10.6,16.3c-5.2,7.7-10.4,15.6-15.5,23.8
				c-5.2,8.2-10.4,17.5-15.8,27.8c0.2-0.2,2.7-2.6,7.3-7.1c4.6-4.5,9.5-9.2,14.6-14c5.1-4.9,9.3-8.8,12.6-11.7s7.4-6.4,12.4-10.3
				v7.9c-10.6,11.4-20.2,22.2-28.9,32.5s-15.3,18.4-20,24.6c-4.7,6.1-7.4,9.7-8.2,10.7c-2.1,2.8-4,5.3-5.7,7.7
				c-1.7,2.4-3.1,4.2-4.2,5.5c-1.1,1.3-2.1,1.9-2.8,1.9c-1.7,0-3.1-1.6-4.4-4.9c-1.3-3.3-1.9-6.2-1.9-8.7c0-2.3,0.4-4.3,1.3-6
				C535.5,466.3,548.2,444.2,568,412.6z"/>
		</g>
	</g>
	<g enable-background="new    ">
		<g>
			<path fill="#244FA2" d="M171.1,514.7c-2.6,0-4.8-0.9-6.5-2.7c-1.7-1.8-2.5-3.9-2.5-6.3c0-8.6,4.9-19.4,14.4-32.2
				c9.5-12.8,24.8-26.5,45.4-40.8c8.9-17.1,16.3-32.9,22.1-46.8c5.8-14,10.3-26.2,13.3-36.1c3-9.9,5.2-18,6.4-24
				c1.2-6,1.8-9.9,1.8-11.5c0-4.1-1.9-4.6-3.4-4.6c-2,0-5.1,1.2-9.1,3.6c-4.1,2.4-8.6,6.1-13.3,10.8c-4.8,4.8-9.3,10.4-13.4,16.7
				c-4.1,6.2-8,13.3-11.4,21.1c-3.4,7.8-6.1,15.1-7.9,21.6c-1.8,6.5-2.8,11.9-2.8,15.8c0,0.9,0.1,2.6,0.3,5.2
				c0.5-0.8,1.1-1.8,1.8-2.8c1-1.6,2.4-3.2,4-4.9c1.6-1.7,3.3-3.1,5.1-4.2c1-0.8,2.3-1.5,3.8-2c0.7-0.3,1.2-0.4,1.6-0.4
				c0.8,0,1.1,0.5,1.1,1c0,0.4,0,0.9-6.8,9.2c-4.5,5.4-8.4,10.4-11.7,14.8c-1.9,2.5-4.5,5-7.7,7.2c-3.3,2.3-5.9,3.4-8,3.4
				c-2.6,0-4.3-1.2-5.1-3.6c-0.8-2.3-1.1-5.8-1.1-10.7c0-11.6,2-24.6,6-38.7c4-14.1,9.4-26.7,16.1-37.4c5.4-8.5,12.2-16.3,20-23.2
				c7.9-6.9,15.6-12.3,23.1-16.2c7.5-3.9,13.5-5.8,17.8-5.8c5.3,0,9.5,1.7,12.4,5.1c2.9,3.3,4.4,8,4.4,13.8c0,2.8-0.3,6.1-1,9.7
				c-0.7,3.5-1.5,7.2-2.5,10.8c-1,3.6-2.8,9.5-5.3,17.5c-2.5,8-4.2,13.4-5,15.9c-2.4,8.1-5.7,16.5-9.6,25
				c-3.8,8.2-9.3,19.2-16.2,32.5l23.4-12.6v8.8l-31.5,17.8c-6.9,11.6-13.9,22.8-20.8,33.1c-6.9,10.4-13.2,19.1-18.6,25.9
				c-5.4,6.8-10.1,12.1-14,15.6C176.1,512.9,173.1,514.7,171.1,514.7z M262.2,308.6c2,0,4.4,1,4.4,5.6c0,1.7-0.6,5.5-1.8,11.7
				c-1.2,6.1-3.4,14.2-6.4,24.1c-3.1,10-7.6,22.1-13.4,36.2c-5.8,14-13.3,29.9-22.2,47l-0.1,0.1l-0.1,0.1
				c-20.6,14.3-35.8,28-45.3,40.7c-9.5,12.6-14.2,23.3-14.2,31.6c0,2.2,0.7,4,2.2,5.6c1.5,1.6,3.4,2.4,5.8,2.4
				c1.8,0,4.6-1.8,8.4-5.2c3.9-3.5,8.6-8.8,13.9-15.5c5.4-6.8,11.6-15.5,18.5-25.8c6.9-10.4,13.9-21.5,20.8-33.2l0.1-0.1l0.1-0.1
				l31.1-17.6v-6.5l-24.8,13.4l0.7-1.4c7.3-14,13-25.4,16.9-33.9c3.9-8.5,7.2-16.9,9.6-24.9c0.8-2.6,2.4-7.9,5-15.9
				c2.5-8,4.3-13.9,5.3-17.5c1-3.6,1.9-7.2,2.5-10.7c0.7-3.5,1-6.7,1-9.5c0-5.6-1.4-10-4.1-13.2c-2.7-3.1-6.6-4.7-11.7-4.7
				c-4.1,0-10,1.9-17.3,5.7c-7.4,3.8-15.1,9.2-22.9,16c-7.8,6.8-14.5,14.6-19.9,23c-6.6,10.6-12,23.1-15.9,37.2
				c-3.9,14.1-5.9,27-5.9,38.5c0,4.7,0.4,8.2,1.1,10.3c0.7,2,2,3,4.2,3c1.9,0,4.3-1.1,7.4-3.2c3.1-2.2,5.6-4.5,7.4-7
				c3.3-4.4,7.2-9.4,11.7-14.8c5.5-6.7,6.5-8.3,6.6-8.6c0,0-0.1,0-0.1,0c-0.2,0-0.6,0.1-1.3,0.3c-1.4,0.5-2.6,1.1-3.5,1.9
				c-1.7,1.1-3.4,2.5-4.9,4.1c-1.5,1.6-2.8,3.2-3.8,4.8c-1,1.6-1.9,2.9-2.6,4l-0.8,1.2l-0.1-1.4c-0.3-3.5-0.5-5.7-0.5-6.8
				c0-4,0.9-9.4,2.8-16.1c1.8-6.6,4.5-13.9,7.9-21.7c3.4-7.8,7.3-15,11.4-21.3c4.2-6.4,8.7-12.1,13.5-16.9c4.8-4.8,9.3-8.5,13.5-11
				C256.8,309.8,260,308.6,262.2,308.6z"/>
		</g>
		<g>
			<path fill="#244FA2" d="M287.6,445.7c-4.5,0-8.7-1.5-12.4-4.5c-3.7-2.9-6.6-7-8.8-12.1c-2.2-5.1-3.3-10.8-3.3-17.1
				c0-5.1,1.7-10.8,5.1-17c3.4-6.2,7.7-12,13.1-17.3c5.3-5.3,11.1-9.7,17.2-13c6.1-3.3,11.9-5,17.1-5c3.8,0,6.8,0.6,9,1.8
				c2.3,1.2,3.5,3,3.5,5.2c0,1.5-0.8,3.2-2.3,5.1c2.7,0.7,4.6,1.7,5.6,3.1c1.2,1.6,1.8,4.3,1.8,8.3c0,3.8-0.9,8.7-2.7,14.4
				c-1.7,5.6-4.1,11-7.1,16l1.7,1.7h1.6c1.3,0,2.5-0.3,3.7-0.9c1.3-0.7,2.4-1.4,3.4-2.1c1-0.7,3.3-2.4,6.7-5l0.8-0.6v9.1l-0.2,0.1
				c-5.2,4.7-9.5,7.9-12.6,9.5c-3.2,1.6-7.7,2.2-13.6,2C304.6,439.6,295.5,445.7,287.6,445.7z M315.6,360.8
				c-5.1,0-10.7,1.6-16.6,4.8c-6,3.2-11.7,7.5-16.9,12.8c-5.3,5.3-9.6,11-12.9,17.1c-3.3,6-5,11.6-5,16.5c0,6.1,1.1,11.7,3.2,16.7
				c2.1,4.9,5,8.9,8.5,11.7c3.5,2.8,7.5,4.3,11.7,4.3c7.6,0,16.6-6.1,26.7-18l0.2-0.2l0.2,0c5.8,0.3,10.3-0.3,13.3-1.8
				c3.1-1.5,7.2-4.6,12.2-9.2v-6.7c-3,2.3-5,3.7-5.9,4.4c-1,0.8-2.2,1.5-3.5,2.2c-1.4,0.7-2.8,1.1-4.2,1.1h-2l-2.5-2.5l0.2-0.3
				c3-5,5.5-10.4,7.2-16.1c1.7-5.7,2.6-10.4,2.6-14.1c0-3.7-0.5-6.3-1.6-7.7c-1-1.3-3-2.3-5.8-2.9l-0.8-0.2l0.6-0.6
				c1.7-1.9,2.6-3.7,2.6-5.1c0-1.9-1-3.3-2.9-4.3C322,361.4,319.2,360.8,315.6,360.8z M289.3,429.5c-7.5,0-11.4-2.8-11.4-8.3
				c0-0.5,0.3-2.5,3-14.4c1.1-3.4,3.4-6.8,6.6-10.1c3.2-3.3,7.2-6.6,11.9-9.7c4.6-3.2,10.3-6.8,16.8-10.7l1.7-1l-1,1.7
				c-4,6.6-7,12.6-9.1,17.7c-2,5.1-3,10.1-3,15c0,3.3,0.7,6.8,2,10.5l0.1,0.4l-0.3,0.2C298.4,426.6,292.8,429.5,289.3,429.5z
				 M315,378.2c-5.8,3.5-10.8,6.8-15,9.6c-4.6,3.2-8.5,6.4-11.7,9.6c-3.2,3.2-5.3,6.4-6.4,9.7c-2.4,10.8-2.9,13.7-2.9,14.1
				c0,4.9,3.4,7.3,10.4,7.3c3.2,0,8.7-2.8,16.4-8.4c-1.3-3.6-1.9-7.1-1.9-10.4c0-5,1-10.2,3.1-15.4
				C308.7,389.6,311.5,384.2,315,378.2z"/>
		</g>
		<g>
			<path fill="#244FA2" d="M354.1,450.8c-3.7,0-6.7-1.5-9-4.3c-2.2-2.8-3.4-6.5-3.4-10.9c0-3,0.6-6.5,1.9-10.5
				c1.1-3.7,3.1-9.2,5.8-16.3c-0.5,0.5-1.1,1-1.6,1.4c-1,0.9-1.9,1.7-2.7,2.5c-0.8,0.8-1.7,1.5-2.7,2.4c-0.9,0.8-1.9,1.7-2.8,2.5
				l-0.8,0.8v-9.5l0.2-0.1c8.1-6.8,18-18.8,29.4-35.7c-0.9-0.1-1.7-0.1-2.4-0.1c-1,0-2.3-0.1-3.6-0.1c-4.6,0-8,0.3-10.3,0.9
				c-0.9,0.2-1.8,0.5-2.6,0.8c-0.9,0.3-1.5,0.4-1.9,0.4c-0.2,0-1-0.1-1-1.2c0-2.7,1.6-6.6,4.9-12c2.6-4.4,5.1-7.8,7.5-9.9
				c2.4-2.2,5.3-3.7,8.7-4.4c3.4-0.8,8.2-1.1,14.2-1.1h4.8c4.1-7.4,7.9-12.6,11.3-15.7c3.5-3.2,7.5-4.8,11.9-4.8c4.6,0,7,1.2,7,3.5
				c0,0.7-0.6,2.3-5.2,8c-3.1,3.8-5.5,7.1-7.2,9.8c2.4,0.3,4.5,0.5,6.4,0.7c2.1,0.2,3.7,0.4,4.9,0.6l0.7,0.1l-0.3,0.6
				c-4.5,8.3-10.2,17-16.9,25.7l-0.2,0.2l-0.3,0c-2.2-0.2-4.1-0.3-5.6-0.4l-4.5-0.4c-1.5-0.1-3.2-0.2-5.3-0.4
				c-4.2,6.7-7.7,12.8-10.5,18.1c-2.8,5.3-5.1,10.3-6.6,14.7c-1.5,4.4-2.3,8.6-2.3,12.6c0,5.1,2,7.6,6,7.6c2.9,0,6.7-1.6,11.5-4.7
				c4.8-3.2,11.3-8.1,19.4-14.7l0.8-0.7v9.2l-0.1,0.1C380.3,439.1,364.3,450.8,354.1,450.8z M351.8,405.3l-0.7,1.9
				c-3.1,8.1-5.3,14.2-6.5,18.1c-1.2,3.9-1.8,7.4-1.8,10.2c0,4.2,1.1,7.7,3.1,10.3c2.1,2.7,4.8,3.9,8.2,3.9
				c9.9,0,25.6-11.5,46.6-34.3v-6.7c-7.7,6.3-14,11-18.6,14.1c-4.9,3.2-8.9,4.9-12,4.9c-4.6,0-7-2.9-7-8.6c0-4.1,0.8-8.4,2.3-12.9
				c1.5-4.5,3.8-9.5,6.6-14.9c2.9-5.4,6.5-11.6,10.7-18.4l0.2-0.3l0.3,0c2.2,0.2,4.1,0.3,5.6,0.4l4.5,0.4c1.4,0.1,3.2,0.2,5.3,0.4
				c6.5-8.4,12-16.7,16.3-24.7c-1.1-0.1-2.5-0.3-4.2-0.5c-2.1-0.2-4.5-0.5-7.1-0.8l-0.8-0.1l0.4-0.7c1.7-2.8,4.3-6.4,7.7-10.6
				c4.3-5.3,5-6.9,5-7.4c0-1.6-2-2.5-6-2.5c-4.2,0-8,1.5-11.2,4.5c-3.3,3.1-7.1,8.4-11.2,15.8l-0.1,0.3h-5.4c-6,0-10.7,0.4-14,1.1
				c-3.2,0.7-6,2.1-8.3,4.2c-2.3,2.1-4.7,5.3-7.3,9.7c-3.2,5.1-4.8,8.9-4.8,11.4c0,0.2,0,0.3,0,0.3c0.1,0,0.5-0.1,1.5-0.4
				c0.8-0.3,1.8-0.5,2.7-0.8c2.3-0.6,5.8-1,10.5-1c1.4,0,2.6,0,3.7,0.1c1,0,2.1,0.1,3.3,0.2l0.9,0.1l-0.5,0.7
				c-11.6,17.2-21.7,29.5-29.9,36.4v6.8c0.7-0.6,1.3-1.2,2-1.8c0.9-0.8,1.8-1.6,2.7-2.4s1.7-1.6,2.7-2.5c1-0.9,2.1-1.9,3.1-2.8
				L351.8,405.3z"/>
		</g>
		<g>
			<path fill="#244FA2" d="M414.5,450.8c-3.7,0-6.7-1.5-9-4.3c-2.2-2.8-3.4-6.5-3.4-10.9c0-3,0.6-6.5,1.9-10.5
				c1.1-3.7,3.1-9.2,5.8-16.3c-0.5,0.5-1.1,1-1.6,1.4c-1,0.9-1.9,1.7-2.7,2.5c-0.8,0.8-1.7,1.5-2.7,2.4c-0.9,0.8-1.9,1.7-2.8,2.5
				l-0.8,0.8v-9.5l0.2-0.1c8.1-6.8,18-18.8,29.4-35.7c-0.9-0.1-1.7-0.1-2.4-0.1c-1,0-2.3-0.1-3.6-0.1c-4.6,0-8,0.3-10.3,0.9
				c-0.9,0.2-1.8,0.5-2.6,0.8c-0.9,0.3-1.5,0.4-1.9,0.4c-0.2,0-1-0.1-1-1.2c0-2.7,1.6-6.6,4.9-12c2.6-4.4,5.1-7.8,7.5-9.9
				c2.4-2.2,5.3-3.7,8.7-4.4c3.4-0.8,8.2-1.1,14.2-1.1h4.8c4.1-7.4,7.9-12.6,11.3-15.7c3.5-3.2,7.5-4.8,11.9-4.8c4.6,0,7,1.2,7,3.5
				c0,0.7-0.6,2.3-5.2,8c-3.1,3.8-5.5,7.1-7.2,9.8c2.4,0.3,4.5,0.5,6.4,0.7c2.1,0.2,3.7,0.4,4.9,0.6l0.7,0.1l-0.3,0.6
				c-4.5,8.3-10.2,17-16.9,25.7l-0.2,0.2l-0.3,0c-2.2-0.2-4.1-0.3-5.6-0.4l-4.5-0.4c-1.5-0.1-3.2-0.2-5.3-0.4
				c-4.2,6.7-7.7,12.8-10.5,18.1c-2.8,5.3-5.1,10.3-6.6,14.7c-1.5,4.4-2.3,8.6-2.3,12.6c0,5.1,2,7.6,6,7.6c2.9,0,6.7-1.6,11.5-4.7
				c4.8-3.2,11.3-8.1,19.4-14.7l0.8-0.7v9.2L462,416C440.7,439.1,424.8,450.8,414.5,450.8z M412.3,405.3l-0.7,1.9
				c-3.1,8.1-5.3,14.2-6.5,18.1c-1.2,3.9-1.8,7.4-1.8,10.2c0,4.2,1.1,7.7,3.1,10.3c2.1,2.7,4.8,3.9,8.2,3.9
				c9.9,0,25.6-11.5,46.6-34.3v-6.7c-7.7,6.3-14,11-18.6,14.1c-4.9,3.2-8.9,4.9-12,4.9c-4.6,0-7-2.9-7-8.6c0-4.1,0.8-8.4,2.3-12.9
				c1.5-4.5,3.8-9.5,6.6-14.9c2.9-5.4,6.5-11.6,10.7-18.4l0.2-0.3l0.3,0c2.2,0.2,4.1,0.3,5.6,0.4l4.5,0.4c1.4,0.1,3.2,0.2,5.3,0.4
				c6.5-8.4,12-16.7,16.3-24.7c-1.1-0.1-2.5-0.3-4.2-0.5c-2.1-0.2-4.5-0.5-7.1-0.8l-0.8-0.1l0.4-0.7c1.7-2.8,4.3-6.4,7.7-10.6
				c4.3-5.3,5-6.9,5-7.4c0-1.6-2-2.5-6-2.5c-4.2,0-8,1.5-11.2,4.5c-3.3,3.1-7.1,8.4-11.2,15.8l-0.1,0.3h-5.4c-6,0-10.7,0.4-14,1.1
				c-3.2,0.7-6,2.1-8.3,4.2c-2.3,2.1-4.7,5.3-7.3,9.7c-3.2,5.1-4.8,8.9-4.8,11.4c0,0.2,0,0.3,0,0.3c0.1,0,0.5-0.1,1.5-0.4
				c0.8-0.3,1.8-0.5,2.7-0.8c2.3-0.6,5.8-1,10.5-1c1.4,0,2.6,0,3.7,0.1c1,0,2.1,0.1,3.3,0.2l0.9,0.1l-0.5,0.7
				c-11.6,17.2-21.7,29.5-29.9,36.4v6.8c0.7-0.6,1.3-1.2,2-1.8c0.9-0.8,1.8-1.6,2.7-2.4s1.7-1.6,2.7-2.5c1-0.9,2.1-1.9,3.1-2.8
				L412.3,405.3z"/>
		</g>
		<g>
			<path fill="#244FA2" d="M477.7,448.7c-5.8,0-10.3-3.2-13.6-9.4c-3.2-6.1-4.8-14.3-4.8-24.3c0-8,1.9-17.7,5.7-28.8
				c3.8-11,8.9-22.4,15.2-33.7c6.3-11.3,13-21.4,19.8-29.8c6.8-8.5,13.2-14.5,19.1-17.9c2.5-1.5,4.4-2.2,5.8-2.2
				c1.8,0,3.2,0.9,3.8,2.5c0.6,1.5,0.9,4,0.9,7.7c0,11-4.5,24.6-13.4,40.6c-8.9,15.9-21.4,32.3-37.2,48.8c-0.8,4-1.1,7.1-1.1,9.2
				c0,4.9,1.1,8.9,3.2,12c2.1,3,4.9,4.5,8.6,4.5c1.9,0,3.9-0.7,6.1-2.2c2.3-1.5,4.7-3.4,7.1-5.7c2.6-2.3,7.5-6.9,14.8-13.6l0.8-0.8
				v10l-0.1,0.1C501.7,437.6,488.1,448.7,477.7,448.7z M524.8,303.6c-1.2,0-3,0.7-5.3,2.1c-5.8,3.3-12.1,9.3-18.8,17.7
				c-6.8,8.4-13.4,18.4-19.7,29.7c-6.3,11.3-11.4,22.6-15.1,33.6c-3.7,11-5.6,20.5-5.6,28.5c0,9.8,1.6,17.8,4.7,23.8
				c3.1,5.9,7.4,8.9,12.7,8.9c10.1,0,23.4-10.9,39.6-32.4v-7.4c-6.8,6.3-11.5,10.6-13.9,12.8c-2.5,2.3-5,4.2-7.3,5.8
				c-2.4,1.6-4.6,2.4-6.7,2.4c-4,0-7.2-1.7-9.4-4.9c-2.2-3.2-3.3-7.4-3.3-12.6c0-2.2,0.4-5.4,1.2-9.5l0-0.1l0.1-0.1
				c15.8-16.5,28.3-32.9,37.1-48.7c8.8-15.8,13.3-29.3,13.3-40.1c0-3.5-0.3-5.9-0.8-7.3C527.1,304.2,526.2,303.6,524.8,303.6z
				 M481.7,387l0.4-1.6c2.5-11.6,6.8-23.3,12.8-34.8c6-11.5,11.5-19.3,16.3-23.2c1.9-1.3,2.6-1.4,3-1.4c1.1,0,2.4,0.6,2.4,3.2
				c0,2.4-1,5.9-2.9,10.7c-1.9,4.6-4.6,9.9-8,15.8c-3.4,5.8-7,11.3-10.8,16.5c-3.8,5.1-7.8,9.7-11.9,13.8L481.7,387z M514.2,326.9
				c-0.2,0-0.7,0.1-2.4,1.2c-4.7,3.8-10.1,11.6-16,22.9c-5.6,10.8-9.8,21.9-12.3,32.9c3.6-3.7,7.2-7.9,10.6-12.4
				c3.8-5.1,7.4-10.6,10.8-16.4c3.4-5.8,6-11,7.9-15.6c1.9-4.6,2.9-8,2.9-10.3C515.5,326.9,514.6,326.9,514.2,326.9z"/>
		</g>
		<g>
			<path fill="#244FA2" d="M534.9,499.2c-1.9,0-3.5-1.7-4.9-5.2c-1.3-3.3-2-6.3-2-8.9c0-2.4,0.5-4.5,1.4-6.2
				c5.5-12.3,17.7-33.8,36.5-63.8l-18.6,15.7c-10.2,8.9-16.9,13.2-20.4,13.2c-3.3,0-6.6-3.5-10.1-10.8c-3.4-7.1-5.1-13.4-5.1-18.7
				c0-4.5,0.7-8.4,2.1-11.6c1.4-3.1,3.8-7.2,7.2-12.2c4.8-6.7,9.5-12.4,13.9-17.1c4.4-4.6,8.4-8.3,11.7-10.9
				c3.5-2.6,5.9-3.9,7.4-3.9c2.3,0,4.5,1.2,6.6,3.5c2.1,2.3,3.1,4.7,3.1,7.2c0,1.6-1.1,4.1-3.3,7.5c-2.2,3.3-5.6,7.6-10.3,12.6
				c-4.7,5-11.2,11.2-19.5,18.2l-2.2,6.4c-0.6,1.2-0.9,2.3-0.9,3.1c0,1.9,0.8,2.7,2.7,2.7c1.4,0,5.2-1.4,15.2-8.3
				c8.1-5.5,17-13.1,26.4-22.5c3.7-3.7,6.8-7,9.2-9.8c2.4-2.8,4.6-5.5,6.6-8c2-2.5,3.6-4.4,4.9-5.7c1.4-1.4,2.6-2.1,3.8-2.1
				c0.2,0,0.5,0,0.7,0c1.8,0,3.3,0.9,4.4,2.8c1.1,2,1.7,4.9,1.7,8.6c0,2.2-1,5-2.9,8.2c-1.9,3.2-5.5,8.7-10.6,16.3
				c-5.2,7.6-10.4,15.6-15.5,23.8c-4.7,7.4-9.5,15.8-14.3,25c1.2-1.1,2.8-2.7,5-4.9c4.6-4.5,9.5-9.2,14.6-14.1
				c5.1-4.9,9.4-8.8,12.6-11.8c3.3-2.9,7.5-6.4,12.4-10.3l0.8-0.6v9.1l-0.1,0.1c-10.6,11.3-20.3,22.3-28.8,32.4
				c-8.6,10.2-15.3,18.4-19.9,24.5c-4.7,6.1-7.4,9.7-8.2,10.7c-2.1,2.7-4,5.3-5.7,7.7c-1.7,2.4-3.1,4.3-4.3,5.6
				C536.8,498.5,535.8,499.2,534.9,499.2z M570.1,410.2l-1.7,2.7c-19.6,31.4-32.5,53.7-38.1,66.4c-0.8,1.7-1.3,3.6-1.3,5.8
				c0,2.4,0.6,5.3,1.9,8.5c1.2,3,2.5,4.6,4,4.6c0.3,0,1-0.2,2.4-1.8c1.1-1.3,2.5-3.1,4.2-5.5c1.7-2.4,3.6-5,5.7-7.8
				c0.8-1,3.5-4.6,8.2-10.7c4.7-6.1,11.4-14.4,20-24.6c8.6-10.2,18.2-21,28.7-32.3v-6.7c-4.6,3.7-8.5,6.9-11.6,9.7
				c-3.3,2.9-7.5,6.9-12.6,11.7c-5.1,4.8-10,9.6-14.6,14c-4.2,4.1-7,6.8-7.3,7.1l-2.3,2.3l1.5-2.9c5.3-10.3,10.6-19.6,15.8-27.8
				c5.1-8.2,10.4-16.2,15.5-23.9c5.2-7.6,8.7-13.1,10.6-16.3c1.8-3.1,2.8-5.7,2.8-7.7c0-3.6-0.5-6.3-1.6-8.1c-1-1.7-2.3-2.4-4.1-2.2
				c-0.9,0.1-2,0.7-3.2,1.9c-1.3,1.2-2.9,3.1-4.9,5.6c-2,2.5-4.2,5.2-6.6,8c-2.4,2.8-5.5,6.1-9.2,9.8c-9.5,9.4-18.4,17-26.6,22.6
				c-8.3,5.7-13.5,8.5-15.8,8.5c-2.4,0-3.7-1.3-3.7-3.7c0-1,0.3-2.2,1-3.5l2.3-6.6l0.1-0.1c8.3-7,14.8-13.2,19.5-18.2
				c4.6-5,8.1-9.2,10.2-12.5c2.1-3.2,3.2-5.5,3.2-6.9c0-2.2-1-4.4-2.9-6.5c-1.9-2.1-3.9-3.1-5.8-3.1c-0.8,0-2.7,0.6-6.8,3.7
				c-3.4,2.5-7.3,6.1-11.6,10.7c-4.4,4.6-9,10.3-13.8,16.9c-3.3,4.9-5.7,8.9-7.1,12c-1.3,3-2,6.8-2,11.2c0,5.2,1.7,11.3,5,18.3
				c3.3,6.8,6.4,10.3,9.2,10.3c3.2,0,9.9-4.4,19.7-13L570.1,410.2z"/>
		</g>
	</g>
</g>
</svg>
