<?xml version="1.0" encoding="utf-8"?>
<!-- Generator: Adobe Illustrator 18.1.1, SVG Export Plug-In . SVG Version: 6.00 Build 0)  -->
<svg version="1.1" id="Layer_1" xmlns="http://www.w3.org/2000/svg" xmlns:xlink="http://www.w3.org/1999/xlink" x="0px" y="0px"
	 viewBox="264 189 436 180" enable-background="new 264 189 436 180" xml:space="preserve">
<g>
	<g>
		<path fill="#244FA2" d="M378,196c-1.3,0.9-2.8,1.9-4.1,2.9c-0.1,0.1-0.4,0.2-0.5,0.4c-38.8,27.3-78.6,58.1-93.3,105.1
			c-5.4,16.7-6.4,35.2-11.5,52c15.3-49.1,57.3-80.1,97.9-108.3c3.5-2.5,4.9-21.2,6-25.8c0.1,14.9,0.6,29.8,0.4,44.8
			c-4.5-3.3-9.6-6.1-15-8.3c-0.6-0.2-1.3-0.3-2.1-0.3c-3.8-0.4-9.5,2.4-7.2,5.2c3.2,3.5,4.6,7.8,4.2,12.4c0,0.1,0,0.3,0,0.5
			c-17.1,12.6-31.3,28.5-41.2,47.7c-2.5,4.2,7.8,3.5,9.6,0.4c9.6-18.5,23.1-34.2,40.2-46c1.4-1,1.9-1.8,1.8-2.5
			c0.1-0.3,0.3-0.6,0.3-1c0.1-1.3,0.1-2.7-0.1-4c0.5,0.4,1,0.8,1.6,1.1c1.5,1.3,5.4,0.3,7.8-1.1c0.1,0,0.3,0.1,0.4,0.1
			c0.4,0,0.8-0.1,1-0.4h0.1c0.6,0,1.1-0.4,1.3-0.8c0.4-0.3,0.8-0.7,0.8-1.3c0.4-22.8-1.1-45.6,0-68.4c0-0.4-0.1-0.8-0.4-1.1
			C376.6,197.7,377.3,196.5,378,196z"/>
		<path fill="#244FA2" d="M320.6,334.2c-9.3-4.6-19.2-6.8-29.6-7.1c-2.1,0-5.7,0.4-7.1,1.8c-2.1,1.1-2.5,2.1,0,2.5
			c9.3,0,18.2,2.1,26.7,6.4c1.8,1.1,4.6,0,6.8-0.7C317.7,337.1,322,334.9,320.6,334.2z"/>
	</g>
	<g enable-background="new    ">
		<g>
			<path fill="#244FA2" d="M450.7,294.4l-22.2,12.5c-4.9,8.3-9.8,16.1-14.7,23.5c-4.9,7.4-9.3,13.4-13.1,18.3
				c-3.8,4.8-7.1,8.5-9.9,11c-2.8,2.5-4.8,3.8-6.2,3.8c-1.8,0-3.3-0.6-4.3-1.8c-1.1-1.2-1.7-2.6-1.7-4.2c0-6,3.4-13.5,10.1-22.6
				c6.8-9.1,17.5-18.7,32.1-28.8c6.4-12.2,11.6-23.3,15.7-33.2s7.3-18.5,9.4-25.5c2.2-7.1,3.7-12.7,4.5-17s1.3-7,1.3-8.2
				c0-2.4-0.9-3.6-2.8-3.6c-1.5,0-3.7,0.8-6.6,2.6c-2.9,1.7-6.1,4.3-9.5,7.7c-3.4,3.4-6.6,7.4-9.5,11.9c-3,4.5-5.7,9.5-8.1,15
				c-2.4,5.5-4.3,10.7-5.6,15.3c-1.3,4.7-2,8.4-2,11.2c0,0.7,0.1,2.3,0.4,4.7c0.5-0.8,1.1-1.7,1.8-2.8c0.7-1.1,1.6-2.3,2.8-3.4
				c1.1-1.2,2.3-2.1,3.5-2.9c0.7-0.6,1.6-1,2.6-1.3c1-0.4,1.5-0.4,1.5,0.1c0,0.4-1.6,2.4-4.7,6.3s-5.9,7.4-8.3,10.5
				c-1.3,1.8-3.1,3.5-5.4,5c-2.2,1.6-4,2.3-5.4,2.3c-1.7,0-2.8-0.8-3.3-2.3c-0.5-1.6-0.8-4-0.8-7.4c0-8.2,1.4-17.3,4.2-27.3
				s6.6-18.8,11.3-26.4c3.8-6,8.6-11.5,14.1-16.3c5.6-4.9,11-8.7,16.3-11.4c5.2-2.8,9.4-4.1,12.4-4.1c3.7,0,6.5,1.1,8.5,3.5
				c2,2.3,3,5.5,3,9.5c0,2-0.2,4.2-0.7,6.8c-0.5,2.5-1.1,5-1.8,7.6s-2,6.6-3.7,12.4c-1.8,5.7-3,9.4-3.5,11.2
				c-1.7,5.7-4,11.6-6.8,17.7c-2.8,6-6.8,14.1-11.9,24l17-9.2L450.7,294.4L450.7,294.4z"/>
		</g>
		<g>
			<path fill="#244FA2" d="M504.5,288.3v5.6c-3.7,3.3-6.6,5.6-8.8,6.6c-2.2,1.1-5.4,1.6-9.6,1.3c-7.2,8.6-13.6,12.9-19.1,12.9
				c-3.1,0-5.9-1.1-8.5-3.1c-2.5-2.1-4.6-4.9-6.2-8.4c-1.6-3.5-2.3-7.6-2.3-11.9c0-3.5,1.2-7.5,3.5-11.9c2.3-4.3,5.4-8.4,9.2-12.2
				c3.7-3.7,7.8-6.8,12.1-9.1c4.3-2.3,8.3-3.5,11.9-3.5c2.6,0,4.7,0.4,6.2,1.2c1.5,0.8,2.3,1.9,2.3,3.4c0,1.1-0.6,2.4-1.9,3.8
				c2.1,0.4,3.5,1.2,4.3,2.2c0.8,1.1,1.2,2.9,1.2,5.7c0,2.7-0.6,6-1.9,10.1c-1.3,4-3,7.8-5.2,11.5l1.5,1.5h1.3
				c0.9,0,1.9-0.2,2.8-0.7c0.9-0.5,1.8-1,2.5-1.5C500.5,291.4,502.1,290.2,504.5,288.3z M487.4,266.4c-4.6,2.8-8.6,5.3-11.9,7.6
				c-3.3,2.3-6.1,4.5-8.3,6.9c-2.3,2.3-3.8,4.7-4.6,7c-1.4,6.2-2.1,9.6-2.1,10.1c0,3.7,2.5,5.5,7.7,5.5c2.4,0,6.4-2.1,12-6.2
				c-0.9-2.6-1.4-5.1-1.4-7.5c0-3.5,0.7-7.1,2.2-10.7C482.4,275.3,484.5,271.1,487.4,266.4z"/>
		</g>
		<g>
			<path fill="#244FA2" d="M533.7,245.2h3.6c3-5.3,5.6-9.1,8-11.2c2.4-2.2,5.1-3.3,8.2-3.3c3,0,4.6,0.7,4.6,2.1
				c0,0.6-1.2,2.5-3.6,5.4c-2.4,3-4.2,5.4-5.4,7.4c1.9,0.2,3.6,0.4,5,0.6c1.5,0.1,2.6,0.3,3.5,0.4c-3.2,5.9-7.1,11.9-11.9,18.1
				c-1.6-0.1-2.9-0.2-3.9-0.3c-1.1-0.1-2.1-0.1-3.2-0.3c-1.1-0.1-2.4-0.2-4-0.3c-3,4.8-5.5,9.2-7.6,13c-2.1,3.8-3.6,7.3-4.7,10.5
				c-1.1,3.2-1.6,6.2-1.6,9.1c0,3.8,1.6,5.7,4.6,5.7c2.1,0,4.9-1.1,8.3-3.4c3.4-2.3,8-5.7,13.7-10.4v5.6
				c-15,16.3-26.2,24.5-33.3,24.5c-2.5,0-4.5-1-6.1-2.9c-1.6-2-2.3-4.5-2.3-7.5c0-2.1,0.4-4.5,1.3-7.4c0.8-2.8,2.4-7.1,4.7-12.9
				c-0.8,0.6-1.5,1.3-2.2,2s-1.3,1.2-1.9,1.8c-0.6,0.5-1.2,1.1-1.9,1.7c-0.6,0.6-1.3,1.2-2,1.8v-5.8c5.9-4.9,12.9-13.5,21.2-25.8
				c-0.8-0.1-1.6-0.1-2.3-0.1c-0.7,0-1.6-0.1-2.6-0.1c-3.3,0-5.7,0.2-7.4,0.6c-0.6,0.1-1.3,0.4-1.9,0.6c-0.6,0.2-1,0.3-1.2,0.3
				c-0.2,0-0.4-0.1-0.4-0.5c0-1.8,1.1-4.6,3.4-8.3c1.8-3.1,3.6-5.4,5.2-6.9c1.6-1.5,3.7-2.5,6-3
				C526.1,245.4,529.4,245.2,533.7,245.2z"/>
		</g>
		<g>
			<path fill="#244FA2" d="M576.4,245.2h3.6c3-5.3,5.6-9.1,8-11.2c2.4-2.2,5.1-3.3,8.2-3.3c3,0,4.6,0.7,4.6,2.1
				c0,0.6-1.2,2.5-3.6,5.4c-2.4,3-4.2,5.4-5.4,7.4c1.9,0.2,3.6,0.4,5,0.6c1.5,0.1,2.6,0.3,3.5,0.4c-3.2,5.9-7.1,11.9-11.9,18.1
				c-1.6-0.1-2.9-0.2-3.9-0.3c-1.1-0.1-2.1-0.1-3.2-0.3c-1.1-0.1-2.4-0.2-4-0.3c-3,4.8-5.5,9.2-7.6,13c-2.1,3.8-3.6,7.3-4.7,10.5
				c-1.1,3.2-1.6,6.2-1.6,9.1c0,3.8,1.6,5.7,4.6,5.7c2.1,0,4.9-1.1,8.3-3.4c3.4-2.3,8-5.7,13.7-10.4v5.6
				c-15,16.3-26.2,24.5-33.3,24.5c-2.5,0-4.5-1-6.1-2.9c-1.6-2-2.3-4.5-2.3-7.5c0-2.1,0.4-4.5,1.3-7.4s2.4-7.1,4.7-12.9
				c-0.8,0.6-1.5,1.3-2.2,2s-1.3,1.2-1.9,1.8c-0.6,0.5-1.2,1.1-1.9,1.7c-0.6,0.6-1.3,1.2-2,1.8v-5.8c5.9-4.9,12.9-13.5,21.2-25.8
				c-0.8-0.1-1.6-0.1-2.3-0.1c-0.7,0-1.6-0.1-2.6-0.1c-3.3,0-5.7,0.2-7.4,0.6c-0.6,0.1-1.3,0.4-1.9,0.6c-0.6,0.2-1,0.3-1.2,0.3
				c-0.2,0-0.4-0.1-0.4-0.5c0-1.8,1.1-4.6,3.4-8.3c1.8-3.1,3.6-5.4,5.2-6.9c1.6-1.5,3.7-2.5,6-3
				C568.8,245.4,572.1,245.2,576.4,245.2z"/>
		</g>
		<g>
			<path fill="#244FA2" d="M629.8,287.6v6.2c-11.7,15.4-21.1,23.1-28.4,23.1c-4,0-7.1-2.1-9.3-6.4s-3.4-10-3.4-17
				c0-5.7,1.3-12.4,4-20.2c2.7-7.8,6.2-15.8,10.7-23.8c4.5-8.1,9.1-15.1,13.9-21.1c4.8-6,9.3-10.2,13.4-12.6c1.7-1,3-1.5,3.9-1.5
				c1.2,0,2,0.5,2.3,1.6c0.4,1.1,0.6,2.8,0.6,5.3c0,7.7-3.1,17.3-9.4,28.5c-6.3,11.2-15.1,22.8-26.3,34.5c-0.6,2.9-0.8,5.1-0.8,6.6
				c0,3.5,0.8,6.4,2.3,8.7c1.6,2.2,3.7,3.3,6.4,3.3c1.4,0,2.9-0.6,4.5-1.6c1.6-1.1,3.3-2.4,5.1-4
				C621.1,295.6,624.6,292.4,629.8,287.6z M604.8,272.6c2.9-2.8,5.7-6.1,8.4-9.7c2.7-3.6,5.2-7.5,7.6-11.6s4.2-7.8,5.7-11.1
				c1.3-3.3,2.1-5.7,2.1-7.4c0-1.3-0.4-1.9-1.3-1.9c-0.4,0-1,0.3-1.9,0.9c-3.4,2.8-7.2,8.2-11.5,16.3
				C609.6,256.2,606.6,264.3,604.8,272.6z"/>
		</g>
		<g>
			<path fill="#244FA2" d="M665.3,291.7l-14.8,12.6c-7.1,6.2-11.8,9.3-14.2,9.3c-2.2,0-4.5-2.5-6.9-7.5c-2.4-4.9-3.6-9.3-3.6-13.1
				c0-3.2,0.5-5.9,1.5-8.1c1-2.2,2.7-5,5-8.6c3.4-4.7,6.6-8.8,9.8-12c3.1-3.3,5.9-5.8,8.3-7.6c2.4-1.8,4-2.7,5-2.7
				c1.5,0,3,0.8,4.4,2.3c1.4,1.6,2.1,3.2,2.1,4.8c0,1.1-0.8,2.8-2.3,5.1c-1.6,2.3-4,5.3-7.3,8.9c-3.3,3.6-7.9,7.9-13.8,12.9
				l-1.6,4.6c-0.4,0.9-0.6,1.7-0.6,2.3c0,1.5,0.8,2.3,2.3,2.3c1.6,0,5.2-2,11-5.9c5.7-4,12-9.3,18.7-15.9c2.6-2.6,4.8-4.9,6.5-6.9
				c1.7-2,3.3-3.9,4.7-5.7c1.4-1.8,2.5-3,3.5-4c0.9-0.9,1.8-1.3,2.5-1.4c1.4-0.1,2.5,0.4,3.3,1.8c0.8,1.3,1.2,3.3,1.2,5.9
				c0,1.5-0.6,3.4-2,5.7c-1.3,2.3-3.8,6.1-7.5,11.5c-3.7,5.4-7.4,11-11,16.8c-3.7,5.8-7.4,12.4-11.2,19.7c0.1-0.1,1.9-1.8,5.2-5
				c3.3-3.2,6.7-6.5,10.3-9.9c3.6-3.5,6.6-6.2,8.9-8.3c2.3-2.1,5.2-4.5,8.8-7.3v5.6c-7.5,8.1-14.3,15.7-20.4,23
				c-6.2,7.3-10.8,13-14.1,17.4c-3.3,4.3-5.2,6.9-5.8,7.6c-1.5,2-2.8,3.7-4,5.4c-1.2,1.7-2.2,3-3,3.9c-0.8,0.9-1.5,1.3-2,1.3
				c-1.2,0-2.2-1.1-3.1-3.5c-0.9-2.3-1.3-4.4-1.3-6.2c0-1.6,0.3-3,0.9-4.2C642.3,329.7,651.3,314.1,665.3,291.7z"/>
		</g>
	</g>
	<g enable-background="new    ">
		<g>
			<path fill="#244FA2" d="M384.6,363.9c-1.8,0-3.4-0.6-4.6-1.9c-1.2-1.3-1.8-2.8-1.8-4.5c0-6.1,3.5-13.7,10.2-22.8
				c6.7-9.1,17.5-18.7,32.1-28.8c6.3-12.1,11.5-23.3,15.6-33.1c4.1-9.9,7.3-18.5,9.4-25.5s3.7-12.7,4.5-17c0.8-4.2,1.3-7,1.3-8.1
				c0-2.9-1.3-3.3-2.4-3.3c-1.4,0-3.6,0.8-6.4,2.5c-2.9,1.7-6.1,4.3-9.4,7.6c-3.4,3.4-6.6,7.4-9.5,11.8c-2.9,4.4-5.7,9.4-8.1,14.9
				c-2.4,5.5-4.3,10.7-5.6,15.3c-1.3,4.6-2,8.4-2,11.2c0,0.6,0.1,1.8,0.2,3.7c0.4-0.6,0.8-1.3,1.3-2c0.7-1.1,1.7-2.3,2.8-3.5
				c1.1-1.2,2.3-2.2,3.6-3c0.7-0.6,1.6-1.1,2.7-1.4c0.5-0.2,0.8-0.3,1.1-0.3c0.6,0,0.8,0.4,0.8,0.7c0,0.3,0,0.6-4.8,6.5
				c-3.2,3.8-5.9,7.4-8.3,10.5c-1.3,1.8-3.2,3.5-5.4,5.1c-2.3,1.6-4.2,2.4-5.7,2.4c-1.8,0-3-0.8-3.6-2.5c-0.6-1.6-0.8-4.1-0.8-7.6
				c0-8.2,1.4-17.4,4.2-27.4c2.8-10,6.6-18.9,11.4-26.4c3.8-6,8.6-11.5,14.1-16.4c5.6-4.9,11-8.7,16.3-11.5
				c5.3-2.8,9.5-4.1,12.6-4.1c3.7,0,6.7,1.2,8.8,3.6c2.1,2.3,3.1,5.7,3.1,9.8c0,2-0.2,4.3-0.7,6.9c-0.5,2.5-1.1,5.1-1.8,7.6
				c-0.7,2.5-2,6.7-3.7,12.4c-1.8,5.7-3,9.5-3.5,11.2c-1.7,5.7-4,11.7-6.8,17.7c-2.7,5.8-6.6,13.6-11.5,23l16.5-8.9v6.2l-22.3,12.6
				c-4.9,8.2-9.8,16.1-14.7,23.4c-4.9,7.4-9.3,13.5-13.2,18.3s-7.1,8.6-9.9,11C388.2,362.7,386,363.9,384.6,363.9z M449,218.2
				c1.4,0,3.1,0.7,3.1,4c0,1.2-0.4,3.9-1.3,8.3c-0.8,4.3-2.4,10-4.5,17c-2.2,7.1-5.4,15.6-9.5,25.6c-4.1,9.9-9.4,21.1-15.7,33.2
				l-0.1,0.1l-0.1,0.1c-14.6,10.1-25.3,19.8-32,28.8c-6.7,8.9-10,16.5-10,22.3c0,1.6,0.5,2.8,1.6,4c1.1,1.1,2.4,1.7,4.1,1.7
				c1.3,0,3.3-1.3,5.9-3.7c2.8-2.5,6.1-6.2,9.8-11c3.8-4.8,8.2-11,13.1-18.2c4.9-7.4,9.8-15.2,14.7-23.5l0.1-0.1l0.1-0.1l22-12.4
				v-4.6l-17.5,9.5l0.5-1c5.2-9.9,9.2-18,11.9-24s5.1-11.9,6.8-17.6c0.6-1.8,1.7-5.6,3.5-11.2c1.8-5.7,3-9.8,3.7-12.4
				c0.7-2.5,1.3-5.1,1.8-7.6c0.5-2.5,0.7-4.7,0.7-6.7c0-4-1-7.1-2.9-9.3c-1.9-2.2-4.7-3.3-8.3-3.3c-2.9,0-7.1,1.3-12.2,4
				c-5.2,2.7-10.7,6.5-16.2,11.3c-5.5,4.8-10.3,10.3-14.1,16.3c-4.7,7.5-8.5,16.3-11.2,26.3s-4.2,19.1-4.2,27.2
				c0,3.3,0.3,5.8,0.8,7.3c0.5,1.4,1.4,2.1,3,2.1c1.3,0,3-0.8,5.2-2.3c2.2-1.6,4-3.2,5.2-4.9c2.3-3.1,5.1-6.6,8.3-10.5
				c3.9-4.7,4.6-5.9,4.7-6.1h-0.1c-0.1,0-0.4,0.1-0.9,0.2c-1,0.4-1.8,0.8-2.5,1.3c-1.2,0.8-2.4,1.8-3.5,2.9s-2,2.3-2.7,3.4
				c-0.7,1.1-1.3,2.1-1.8,2.8l-0.6,0.8l-0.1-1c-0.2-2.5-0.4-4-0.4-4.8c0-2.8,0.6-6.6,2-11.4c1.3-4.7,3.2-9.8,5.6-15.3
				c2.4-5.5,5.2-10.6,8.1-15.1c3-4.5,6.2-8.6,9.5-11.9c3.4-3.4,6.6-6,9.5-7.8C445.2,219.1,447.5,218.2,449,218.2z"/>
		</g>
		<g>
			<path fill="#244FA2" d="M467,315.1c-3.2,0-6.2-1.1-8.8-3.2c-2.6-2.1-4.7-4.9-6.2-8.6c-1.6-3.6-2.3-7.6-2.3-12.1
				c0-3.6,1.2-7.6,3.6-12c2.4-4.4,5.4-8.5,9.3-12.2c3.7-3.7,7.8-6.9,12.2-9.2c4.3-2.3,8.4-3.5,12.1-3.5c2.7,0,4.8,0.4,6.4,1.3
				c1.6,0.8,2.5,2.1,2.5,3.7c0,1.1-0.6,2.3-1.6,3.6c1.9,0.5,3.3,1.2,4,2.2c0.8,1.1,1.3,3,1.3,5.9c0,2.7-0.6,6.2-1.9,10.2
				c-1.2,4-2.9,7.8-5,11.3l1.2,1.2h1.1c0.9,0,1.8-0.2,2.6-0.6c0.9-0.5,1.7-1,2.4-1.5s2.3-1.7,4.7-3.5l0.6-0.4v6.4l-0.1,0.1
				c-3.7,3.3-6.7,5.6-8.9,6.7c-2.3,1.1-5.4,1.6-9.6,1.4C479,310.8,472.6,315.1,467,315.1z M486.8,255.1c-3.6,0-7.6,1.1-11.7,3.4
				c-4.2,2.3-8.3,5.3-11.9,9.1c-3.7,3.7-6.8,7.8-9.1,12.1c-2.3,4.2-3.5,8.2-3.5,11.7c0,4.3,0.8,8.3,2.3,11.8c1.5,3.5,3.5,6.3,6,8.3
				c2.5,2,5.3,3,8.3,3c5.4,0,11.7-4.3,18.9-12.7l0.1-0.1h0.1c4.1,0.2,7.3-0.2,9.4-1.3c2.2-1.1,5.1-3.3,8.6-6.5v-4.7
				c-2.1,1.6-3.5,2.6-4.2,3.1c-0.7,0.6-1.6,1.1-2.5,1.6c-1,0.5-2,0.8-3,0.8h-1.4l-1.8-1.8l0.1-0.2c2.1-3.5,3.9-7.4,5.1-11.4
				c1.2-4,1.8-7.4,1.8-10s-0.4-4.5-1.1-5.4c-0.7-0.9-2.1-1.6-4.1-2.1l-0.6-0.1l0.4-0.4c1.2-1.3,1.8-2.6,1.8-3.6c0-1.3-0.7-2.3-2.1-3
				C491.3,255.5,489.3,255.1,486.8,255.1z M468.2,303.7c-5.3,0-8.1-2-8.1-5.9c0-0.4,0.2-1.8,2.1-10.2c0.8-2.4,2.4-4.8,4.7-7.1
				s5.1-4.7,8.4-6.9c3.3-2.3,7.3-4.8,11.9-7.6l1.2-0.7l-0.7,1.2c-2.8,4.7-4.9,8.9-6.4,12.5c-1.4,3.6-2.1,7.1-2.1,10.6
				c0,2.3,0.5,4.8,1.4,7.4l0.1,0.3l-0.2,0.1C474.6,301.6,470.7,303.7,468.2,303.7z M486.4,267.4c-4.1,2.5-7.6,4.8-10.6,6.8
				c-3.3,2.3-6,4.5-8.3,6.8s-3.7,4.5-4.5,6.9c-1.7,7.6-2.1,9.7-2.1,10c0,3.5,2.4,5.2,7.4,5.2c2.3,0,6.2-2,11.6-5.9
				c-0.9-2.5-1.3-5-1.3-7.4c0-3.5,0.7-7.2,2.2-10.9C481.9,275.5,483.9,271.7,486.4,267.4z"/>
		</g>
		<g>
			<path fill="#244FA2" d="M514,318.7c-2.6,0-4.7-1.1-6.4-3c-1.6-2-2.4-4.6-2.4-7.7c0-2.1,0.4-4.6,1.3-7.4c0.8-2.6,2.2-6.5,4.1-11.5
				c-0.4,0.4-0.8,0.7-1.1,1c-0.7,0.6-1.3,1.2-1.9,1.8c-0.6,0.6-1.2,1.1-1.9,1.7c-0.6,0.6-1.3,1.2-2,1.8l-0.6,0.6v-6.7l0.1-0.1
				c5.7-4.8,12.7-13.3,20.8-25.2c-0.6-0.1-1.2-0.1-1.7-0.1c-0.7,0-1.6-0.1-2.5-0.1c-3.3,0-5.7,0.2-7.3,0.6c-0.6,0.1-1.3,0.4-1.8,0.6
				c-0.6,0.2-1.1,0.3-1.3,0.3c-0.1,0-0.7-0.1-0.7-0.8c0-1.9,1.1-4.7,3.5-8.5c1.8-3.1,3.6-5.5,5.3-7c1.7-1.6,3.7-2.6,6.2-3.1
				c2.4-0.6,5.8-0.8,10-0.8h3.4c2.9-5.2,5.6-8.9,8-11.1c2.5-2.3,5.3-3.4,8.4-3.4c3.3,0,4.9,0.8,4.9,2.5c0,0.5-0.4,1.6-3.7,5.7
				c-2.2,2.7-3.9,5-5.1,6.9c1.7,0.2,3.2,0.4,4.5,0.5c1.5,0.1,2.6,0.3,3.5,0.4l0.5,0.1l-0.2,0.4c-3.2,5.9-7.2,12-11.9,18.2l-0.1,0.1
				h-0.2c-1.6-0.1-2.9-0.2-4-0.3l-3.2-0.3c-1.1-0.1-2.3-0.1-3.7-0.3c-3,4.7-5.4,9.1-7.4,12.8c-2,3.7-3.6,7.3-4.7,10.4
				c-1.1,3.1-1.6,6.1-1.6,8.9c0,3.6,1.4,5.4,4.2,5.4c2.1,0,4.7-1.1,8.1-3.3c3.4-2.3,8-5.7,13.7-10.4l0.6-0.5v6.5l-0.1,0.1
				C532.5,310.5,521.2,318.7,514,318.7z M512.4,286.6l-0.5,1.3c-2.2,5.7-3.7,10-4.6,12.8c-0.8,2.8-1.3,5.2-1.3,7.2
				c0,3,0.8,5.4,2.2,7.3c1.5,1.9,3.4,2.8,5.8,2.8c7,0,18.1-8.1,32.9-24.3V289c-5.4,4.5-9.9,7.8-13.2,10c-3.5,2.3-6.3,3.5-8.5,3.5
				c-3.3,0-4.9-2.1-4.9-6.1c0-2.9,0.6-5.9,1.6-9.1c1.1-3.2,2.7-6.7,4.7-10.5c2.1-3.8,4.6-8.2,7.6-13l0.1-0.2h0.2
				c1.6,0.1,2.9,0.2,4,0.3l3.2,0.3c1,0.1,2.3,0.1,3.7,0.3c4.6-5.9,8.5-11.8,11.5-17.5c-0.8-0.1-1.8-0.2-3-0.4
				c-1.5-0.1-3.2-0.4-5-0.6l-0.6-0.1l0.3-0.5c1.2-2,3-4.5,5.4-7.5c3-3.7,3.5-4.9,3.5-5.2c0-1.1-1.4-1.8-4.2-1.8
				c-3,0-5.7,1.1-7.9,3.2c-2.3,2.2-5,5.9-7.9,11.2l-0.1,0.2h-3.8c-4.2,0-7.6,0.3-9.9,0.8c-2.3,0.5-4.2,1.5-5.9,3
				c-1.6,1.5-3.3,3.7-5.2,6.9c-2.3,3.6-3.4,6.3-3.4,8.1c0,0.1,0,0.2,0,0.2c0.1,0,0.4-0.1,1.1-0.3c0.6-0.2,1.3-0.4,1.9-0.6
				c1.6-0.4,4.1-0.7,7.4-0.7c1,0,1.8,0,2.6,0.1c0.7,0,1.5,0.1,2.3,0.1l0.6,0.1l-0.4,0.5c-8.2,12.2-15.3,20.9-21.1,25.7v4.8
				c0.5-0.4,0.9-0.8,1.4-1.3c0.6-0.6,1.3-1.1,1.9-1.7s1.2-1.1,1.9-1.8c0.7-0.6,1.5-1.3,2.2-2L512.4,286.6z"/>
		</g>
		<g>
			<path fill="#244FA2" d="M556.7,318.7c-2.6,0-4.7-1.1-6.4-3c-1.6-2-2.4-4.6-2.4-7.7c0-2.1,0.4-4.6,1.3-7.4
				c0.8-2.6,2.2-6.5,4.1-11.5c-0.4,0.4-0.8,0.7-1.1,1c-0.7,0.6-1.3,1.2-1.9,1.8c-0.6,0.6-1.2,1.1-1.9,1.7c-0.6,0.6-1.3,1.2-2,1.8
				l-0.6,0.6v-6.7l0.1-0.1c5.7-4.8,12.7-13.3,20.8-25.2c-0.6-0.1-1.2-0.1-1.7-0.1c-0.7,0-1.6-0.1-2.5-0.1c-3.3,0-5.7,0.2-7.3,0.6
				c-0.6,0.1-1.3,0.4-1.8,0.6c-0.6,0.2-1.1,0.3-1.3,0.3c-0.1,0-0.7-0.1-0.7-0.8c0-1.9,1.1-4.7,3.5-8.5c1.8-3.1,3.6-5.5,5.3-7
				c1.7-1.6,3.7-2.6,6.2-3.1c2.4-0.6,5.8-0.8,10-0.8h3.4c2.9-5.2,5.6-8.9,8-11.1c2.5-2.3,5.3-3.4,8.4-3.4c3.3,0,4.9,0.8,4.9,2.5
				c0,0.5-0.4,1.6-3.7,5.7c-2.2,2.7-3.9,5-5.1,6.9c1.7,0.2,3.2,0.4,4.5,0.5c1.5,0.1,2.6,0.3,3.5,0.4l0.5,0.1l-0.2,0.4
				c-3.2,5.9-7.2,12-11.9,18.2l-0.1,0.1h-0.2c-1.6-0.1-2.9-0.2-4-0.3l-3.2-0.3c-1.1-0.1-2.3-0.1-3.7-0.3c-3,4.7-5.4,9.1-7.4,12.8
				c-2,3.7-3.6,7.3-4.7,10.4c-1.1,3.1-1.6,6.1-1.6,8.9c0,3.6,1.4,5.4,4.2,5.4c2.1,0,4.7-1.1,8.1-3.3c3.4-2.3,8-5.7,13.7-10.4
				l0.6-0.5v6.5h-0.1C575.2,310.5,564,318.7,556.7,318.7z M555.2,286.6l-0.5,1.3c-2.2,5.7-3.7,10-4.6,12.8s-1.3,5.2-1.3,7.2
				c0,3,0.8,5.4,2.2,7.3c1.5,1.9,3.4,2.8,5.8,2.8c7,0,18.1-8.1,32.9-24.3V289c-5.4,4.5-9.9,7.8-13.2,10c-3.5,2.3-6.3,3.5-8.5,3.5
				c-3.3,0-4.9-2.1-4.9-6.1c0-2.9,0.6-5.9,1.6-9.1c1.1-3.2,2.7-6.7,4.7-10.5c2.1-3.8,4.6-8.2,7.6-13l0.1-0.2h0.2
				c1.6,0.1,2.9,0.2,4,0.3l3.2,0.3c1,0.1,2.3,0.1,3.7,0.3c4.6-5.9,8.5-11.8,11.5-17.5c-0.8-0.1-1.8-0.2-3-0.4
				c-1.5-0.1-3.2-0.4-5-0.6l-0.6-0.1l0.3-0.5c1.2-2,3-4.5,5.4-7.5c3-3.7,3.5-4.9,3.5-5.2c0-1.1-1.4-1.8-4.2-1.8
				c-3,0-5.7,1.1-7.9,3.2c-2.3,2.2-5,5.9-7.9,11.2l-0.1,0.2h-3.8c-4.2,0-7.6,0.3-9.9,0.8c-2.3,0.5-4.2,1.5-5.9,3
				c-1.6,1.5-3.3,3.7-5.2,6.9c-2.3,3.6-3.4,6.3-3.4,8.1c0,0.1,0,0.2,0,0.2c0.1,0,0.4-0.1,1.1-0.3c0.6-0.2,1.3-0.4,1.9-0.6
				c1.6-0.4,4.1-0.7,7.4-0.7c1,0,1.8,0,2.6,0.1c0.7,0,1.5,0.1,2.3,0.1l0.6,0.1l-0.4,0.5c-8.2,12.2-15.3,20.9-21.1,25.7v4.8
				c0.5-0.4,0.9-0.8,1.4-1.3c0.6-0.6,1.3-1.1,1.9-1.7c0.6-0.6,1.2-1.1,1.9-1.8s1.5-1.3,2.2-2L555.2,286.6z"/>
		</g>
		<g>
			<path fill="#244FA2" d="M601.4,317.3c-4.1,0-7.3-2.3-9.6-6.6c-2.3-4.3-3.4-10.1-3.4-17.2c0-5.7,1.3-12.5,4-20.4
				c2.7-7.8,6.3-15.8,10.7-23.8c4.5-8,9.2-15.1,14-21.1c4.8-6,9.3-10.3,13.5-12.7c1.8-1.1,3.1-1.6,4.1-1.6c1.3,0,2.3,0.6,2.7,1.8
				c0.4,1.1,0.6,2.8,0.6,5.4c0,7.8-3.2,17.4-9.5,28.7c-6.3,11.2-15.1,22.8-26.3,34.5c-0.6,2.8-0.8,5-0.8,6.5c0,3.5,0.8,6.3,2.3,8.5
				c1.5,2.1,3.5,3.2,6.1,3.2c1.3,0,2.8-0.5,4.3-1.6c1.6-1.1,3.3-2.4,5-4c1.8-1.6,5.3-4.9,10.5-9.6l0.6-0.6v7.1l-0.1,0.1
				C618.4,309.4,608.8,317.3,601.4,317.3z M634.7,214.7c-0.8,0-2.1,0.5-3.7,1.5c-4.1,2.3-8.6,6.6-13.3,12.5c-4.8,5.9-9.5,13-13.9,21
				s-8.1,16-10.7,23.8c-2.6,7.8-4,14.5-4,20.2c0,6.9,1.1,12.6,3.3,16.8c2.2,4.2,5.2,6.3,9,6.3c7.1,0,16.5-7.7,28-22.9v-5.2
				c-4.8,4.5-8.1,7.5-9.8,9.1c-1.8,1.6-3.5,3-5.2,4.1c-1.7,1.1-3.3,1.7-4.7,1.7c-2.8,0-5.1-1.2-6.6-3.5s-2.3-5.2-2.3-8.9
				c0-1.6,0.3-3.8,0.8-6.7v-0.1l0.1-0.1c11.2-11.7,20-23.3,26.2-34.4c6.2-11.2,9.4-20.7,9.4-28.4c0-2.5-0.2-4.2-0.6-5.2
				C636.3,215.1,635.7,214.7,634.7,214.7z M604.2,273.6l0.3-1.1c1.8-8.2,4.8-16.5,9.1-24.6c4.2-8.1,8.1-13.6,11.5-16.4
				c1.3-0.9,1.8-1,2.1-1c0.8,0,1.7,0.4,1.7,2.3c0,1.7-0.7,4.2-2.1,7.6c-1.3,3.3-3.3,7-5.7,11.2c-2.4,4.1-4.9,8-7.6,11.7
				c-2.7,3.6-5.5,6.9-8.4,9.8L604.2,273.6z M627.2,231.1c-0.1,0-0.5,0.1-1.7,0.8c-3.3,2.7-7.1,8.2-11.3,16.2
				c-4,7.6-6.9,15.5-8.7,23.3c2.5-2.6,5.1-5.6,7.5-8.8c2.7-3.6,5.2-7.5,7.6-11.6c2.4-4.1,4.2-7.8,5.6-11s2.1-5.7,2.1-7.3
				C628.1,231.1,627.5,231.1,627.2,231.1z"/>
		</g>
		<g>
			<path fill="#244FA2" d="M641.8,353c-1.3,0-2.5-1.2-3.5-3.7c-0.9-2.3-1.4-4.5-1.4-6.3c0-1.7,0.4-3.2,1-4.4
				c3.9-8.7,12.5-23.9,25.8-45.1l-13.2,11.1c-7.2,6.3-11.9,9.3-14.4,9.3c-2.3,0-4.7-2.5-7.1-7.6c-2.4-5-3.6-9.5-3.6-13.2
				c0-3.2,0.5-5.9,1.5-8.2c1-2.2,2.7-5.1,5.1-8.6c3.4-4.7,6.7-8.8,9.8-12.1c3.1-3.3,5.9-5.9,8.3-7.7c2.5-1.8,4.2-2.8,5.2-2.8
				c1.6,0,3.2,0.8,4.7,2.5c1.5,1.6,2.2,3.3,2.2,5.1c0,1.1-0.8,2.9-2.3,5.3c-1.6,2.3-4,5.4-7.3,8.9c-3.3,3.5-7.9,7.9-13.8,12.9
				l-1.6,4.5c-0.4,0.8-0.6,1.6-0.6,2.2c0,1.3,0.6,1.9,1.9,1.9c1,0,3.7-1,10.7-5.9c5.7-3.9,12-9.3,18.7-15.9c2.6-2.6,4.8-4.9,6.5-6.9
				c1.7-2,3.3-3.9,4.7-5.7c1.4-1.8,2.5-3.1,3.5-4c1-1,1.8-1.5,2.7-1.5c0.1,0,0.4,0,0.5,0c1.3,0,2.3,0.6,3.1,2
				c0.8,1.4,1.2,3.5,1.2,6.1c0,1.6-0.7,3.5-2.1,5.8s-3.9,6.2-7.5,11.5c-3.7,5.4-7.4,11-11,16.8c-3.3,5.2-6.7,11.2-10.1,17.7
				c0.8-0.8,2-1.9,3.5-3.5c3.3-3.2,6.7-6.5,10.3-10c3.6-3.5,6.6-6.2,8.9-8.3c2.3-2.1,5.3-4.5,8.8-7.3l0.6-0.4v6.4l-0.1,0.1
				c-7.5,8-14.4,15.8-20.4,22.9c-6.1,7.2-10.8,13-14.1,17.3c-3.3,4.3-5.2,6.9-5.8,7.6c-1.5,1.9-2.8,3.7-4,5.4c-1.2,1.7-2.2,3-3,4
				C643.2,352.5,642.5,353,641.8,353z M666.7,290l-1.2,1.9c-13.9,22.2-23,38-26.9,46.9c-0.6,1.2-0.9,2.5-0.9,4.1
				c0,1.7,0.4,3.7,1.3,6c0.8,2.1,1.8,3.3,2.8,3.3c0.2,0,0.7-0.1,1.7-1.3c0.8-0.9,1.8-2.2,3-3.9c1.2-1.7,2.5-3.5,4-5.5
				c0.6-0.7,2.5-3.3,5.8-7.6c3.3-4.3,8.1-10.2,14.1-17.4c6.1-7.2,12.9-14.8,20.3-22.8v-4.7c-3.3,2.6-6,4.9-8.2,6.9
				c-2.3,2.1-5.3,4.9-8.9,8.3c-3.6,3.4-7.1,6.8-10.3,9.9c-3,2.9-4.9,4.8-5.2,5l-1.6,1.6l1.1-2.1c3.7-7.3,7.5-13.9,11.2-19.7
				c3.6-5.8,7.4-11.5,11-16.9c3.7-5.4,6.2-9.3,7.5-11.5c1.3-2.2,2-4,2-5.4c0-2.5-0.4-4.5-1.1-5.7c-0.7-1.2-1.6-1.7-2.9-1.6
				c-0.6,0.1-1.4,0.5-2.3,1.3c-0.9,0.8-2.1,2.2-3.5,4c-1.4,1.8-3,3.7-4.7,5.7s-3.9,4.3-6.5,6.9c-6.7,6.6-13,12-18.8,16
				c-5.9,4-9.5,6-11.2,6c-1.7,0-2.6-0.9-2.6-2.6c0-0.7,0.2-1.6,0.7-2.5l1.6-4.7l0.1-0.1c5.9-4.9,10.5-9.3,13.8-12.9
				c3.3-3.5,5.7-6.5,7.2-8.8c1.5-2.3,2.3-3.9,2.3-4.9c0-1.6-0.7-3.1-2.1-4.6c-1.3-1.5-2.8-2.2-4.1-2.2c-0.6,0-1.9,0.4-4.8,2.6
				c-2.4,1.8-5.2,4.3-8.2,7.6c-3.1,3.3-6.4,7.3-9.8,11.9c-2.3,3.5-4,6.3-5,8.5c-0.9,2.1-1.4,4.8-1.4,7.9c0,3.7,1.2,8,3.5,12.9
				c2.3,4.8,4.5,7.3,6.5,7.3c2.3,0,7-3.1,13.9-9.2L666.7,290z"/>
		</g>
	</g>
</g>
</svg>
