<?xml version="1.0" encoding="utf-8"?>
<!-- Generator: Adobe Illustrator 18.1.1, SVG Export Plug-In . SVG Version: 6.00 Build 0)  -->
<svg version="1.1" xmlns="http://www.w3.org/2000/svg" xmlns:xlink="http://www.w3.org/1999/xlink" x="0px" y="0px"
	 viewBox="0 0 960 560" enable-background="new 0 0 960 560" xml:space="preserve">
<g id="Layer_1">
	<g>
		<g id="Map_icon.psd_1_">
			<g id="_x31__2_">
				<g>
					<path fill-rule="evenodd" clip-rule="evenodd" fill="#784213" d="M237.8,170.5c-3,0-5.5,2.4-5.5,5.4c0,3,2.4,5.4,5.5,5.4
						c3,0,5.5-2.4,5.5-5.4C243.3,172.9,240.9,170.5,237.8,170.5z M237.8,179.2c-1.8,0-3.3-1.5-3.3-3.3c0-1.8,1.5-3.3,3.3-3.3
						c1.8,0,3.3,1.5,3.3,3.3C241.1,177.7,239.6,179.2,237.8,179.2z M237.8,162.9c-7.2,0-13.1,5.8-13.1,13.1
						c0,5.5,10.9,21.8,13.1,21.7c2.1,0,13.1-16.4,13.1-21.7C250.9,168.7,245.1,162.9,237.8,162.9z M237.8,194.4
						c-1.8,0-10.9-13.9-10.9-18.5c0-6,4.9-10.9,10.9-10.9c6,0,10.9,4.9,10.9,10.9C248.7,180.4,239.6,194.4,237.8,194.4z"/>
				</g>
				<g>
					<path fill="#784213" d="M237.8,162.9c-7.2,0-13.1,5.8-13.1,13.1c0,5.5,10.9,21.7,13.1,21.7c0,0,0,0,0,0c0,0,0,0,0,0
						c2.1,0,13.1-16.4,13.1-21.7C250.9,168.7,245.1,162.9,237.8,162.9L237.8,162.9z M237.8,194.4c-1.8,0-10.9-13.9-10.9-18.5
						c0-6,4.9-10.9,10.9-10.9c6,0,10.9,4.9,10.9,10.9C248.7,180.4,239.6,194.4,237.8,194.4L237.8,194.4
						C237.8,194.4,237.8,194.4,237.8,194.4L237.8,194.4z M237.8,170.5c-3,0-5.4,2.4-5.4,5.4c0,3,2.4,5.4,5.4,5.4
						c3,0,5.4-2.4,5.4-5.4C243.3,172.9,240.9,170.5,237.8,170.5L237.8,170.5z M237.8,179.2c-1.8,0-3.3-1.5-3.3-3.3
						c0-1.8,1.5-3.3,3.3-3.3c1.8,0,3.3,1.5,3.3,3.3C241.1,177.7,239.6,179.2,237.8,179.2L237.8,179.2z"/>
				</g>
			</g>
		</g>
		<text transform="matrix(1 0 0 1 234.1113 209.548)" fill="#784213" font-family="'MyriadPro-Regular'" font-size="12">A</text>
	</g>
	<g>
		<g id="Map_icon.psd_2_">
			<g id="_x31__3_">
				<g>
					<path fill-rule="evenodd" clip-rule="evenodd" fill="#784213" d="M608.3,162.9c-7.2,0-13.1,5.8-13.1,13.1
						c0,5.5,10.9,21.8,13.1,21.7c2.1,0,13.1-16.4,13.1-21.7C621.4,168.7,615.6,162.9,608.3,162.9z M608.3,194.4
						c-1.8,0-10.9-13.9-10.9-18.5c0-6,4.9-10.9,10.9-10.9c6,0,10.9,4.9,10.9,10.9C619.2,180.4,610.1,194.4,608.3,194.4z
						 M608.3,170.5c-3,0-5.5,2.4-5.5,5.4s2.4,5.4,5.5,5.4s5.5-2.4,5.5-5.4S611.3,170.5,608.3,170.5z M608.3,179.2
						c-1.8,0-3.3-1.5-3.3-3.3s1.5-3.3,3.3-3.3c1.8,0,3.3,1.5,3.3,3.3S610.1,179.2,608.3,179.2z"/>
				</g>
				<g>
					<path fill="#784213" d="M608.3,162.9c-7.2,0-13.1,5.8-13.1,13.1c0,5.5,10.9,21.7,13.1,21.7c0,0,0,0,0,0c0,0,0,0,0,0
						c2.1,0,13.1-16.4,13.1-21.7C621.4,168.7,615.6,162.9,608.3,162.9L608.3,162.9z M608.3,194.4c-1.8,0-10.9-13.9-10.9-18.5
						c0-6,4.9-10.9,10.9-10.9c6,0,10.9,4.9,10.9,10.9C619.2,180.4,610.1,194.4,608.3,194.4C608.3,194.4,608.3,194.4,608.3,194.4
						C608.3,194.4,608.3,194.4,608.3,194.4L608.3,194.4z M608.3,170.5c-3,0-5.5,2.4-5.5,5.4c0,3,2.4,5.4,5.5,5.4
						c3,0,5.5-2.4,5.5-5.4C613.8,172.9,611.3,170.5,608.3,170.5L608.3,170.5z M608.3,179.2c-1.8,0-3.3-1.5-3.3-3.3
						c0-1.8,1.5-3.3,3.3-3.3s3.3,1.5,3.3,3.3C611.6,177.7,610.1,179.2,608.3,179.2L608.3,179.2z"/>
				</g>
			</g>
		</g>
		<text transform="matrix(1 0 0 1 605.2529 209.2592)" fill="#784213" font-family="'MyriadPro-Regular'" font-size="12">B</text>
	</g>
	<g>
		<g>
			<path fill="none" stroke="#784213" stroke-width="1.5" stroke-miterlimit="100" stroke-dasharray="6,6" d="M252,204
				c3-4.2,7.7-9.8,14.5-15c7.7-5.9,12.5-7.9,14.5-8.5c3.2-1,7-1.5,7-1.5c1.4-0.2,2.8-0.3,3.9-0.4"/>
			<g>
				<polygon fill="#784213" points="287.5,185.2 286.4,184.2 291.3,178.7 285.5,174.2 286.4,173 293.5,178.5 				"/>
			</g>
		</g>
	</g>
	<g>
		<g>
			<path fill="none" stroke="#784213" stroke-width="1.5" stroke-miterlimit="100" stroke-dasharray="6,6" d="M298,177.5
				c3.6,1.2,7.9,3.1,12,6.5c0.7,0.6,3.6,3,6.5,7c0.8,1.1,1.7,2.5,5.5,10c4,7.9,4.1,8.6,5.5,10.5c3.3,4.5,7.3,6.8,8.5,7.5
				c5.5,3.1,11,3.6,14.4,3.6"/>
			<g>
				<polygon fill="#784213" points="345.3,228.5 344.3,227.4 349.8,222.4 344.5,217.3 345.6,216.2 352,222.5 				"/>
			</g>
		</g>
	</g>
	<g>
		<g>
			<path fill="none" stroke="#784213" stroke-width="1.5" stroke-miterlimit="100" stroke-dasharray="6,6" d="M357,222
				c11.1-1.7,15.3-6.3,17-9c0.8-1.3,1.3-2.5,4-10.5c2.3-6.9,2.3-7.7,4-12c2.3-5.9,3.5-8.9,6-11.5c3.3-3.3,7-4.5,10.5-5.5
				c6-1.7,11.3-1.1,14.9-0.4"/>
			<g>
				<polygon fill="#784213" points="407.5,178.5 406.7,177.2 412.8,173.1 408.3,167.3 409.5,166.4 415,173.5 				"/>
			</g>
		</g>
	</g>
	<g>
		<g>
			<path fill="none" stroke="#784213" stroke-width="1.5" stroke-miterlimit="100" stroke-dasharray="6,6" d="M419,174.5
				c5,2.5,7.9,5.5,9.5,7.5c2.9,3.5,4.3,7.1,6,11.5c0.5,1.3,1.2,3.4,2.5,7.5c2.5,7.9,2.9,9.7,4.5,13.5c1.6,3.9,2.5,5.7,4,7.5
				c1.3,1.5,5.3,5.6,14.4,6.4"/>
			<g>
				<polygon fill="#784213" points="454.2,233.7 453.3,232.5 459.3,228.2 454.6,222.5 455.8,221.6 461.5,228.5 				"/>
			</g>
		</g>
	</g>
	<g>
		<g>
			<path fill="none" stroke="#784213" stroke-width="1.5" stroke-miterlimit="100" stroke-dasharray="6,6" d="M466.5,228
				c2.8,0.3,7.1,0.4,12-1c2.6-0.7,9.2-2.6,14.5-8.5c3-3.3,4.3-6.4,6-10.5c2.3-5.5,1.5-6.5,4-14.5c2.1-6.6,3.1-9.9,6-13
				c3-3.2,6.3-4.6,8.5-5.5c5-2.1,9.7-2.3,12.9-2.1"/>
			<g>
				<polygon fill="#784213" points="525.3,179.1 524.3,177.9 529.8,173 524.4,167.9 525.5,166.8 532,173 				"/>
			</g>
		</g>
	</g>
	<g>
		<g>
			<path fill="none" stroke="#784213" stroke-width="1.5" stroke-miterlimit="100" stroke-dasharray="6,6" d="M535.5,172.5
				c1.9-0.1,5.5,0.1,9.5,2c2,0.9,4.4,2.5,8.5,7.5c6,7.3,4.6,9.7,9.5,14.5c0.8,0.7,4.5,4.4,10.5,6.5c4.4,1.6,8.2,1.8,13.5,2
				c2.3,0.1,4.3,0.1,5.9,0.1"/>
			<g>
				<polygon fill="#784213" points="588,211.2 586.9,210.1 592.3,205 586.8,200 587.9,198.9 594.5,205 				"/>
			</g>
		</g>
	</g>
</g>
<g id="Layer_2">
</g>
</svg>
