<?xml version="1.0" encoding="utf-8"?>
<!-- Generator: Adobe Illustrator 18.1.1, SVG Export Plug-In . SVG Version: 6.00 Build 0)  -->
<svg version="1.1" id="Layer_1" xmlns="http://www.w3.org/2000/svg" xmlns:xlink="http://www.w3.org/1999/xlink" x="0px" y="0px"
	 viewBox="0 207 960 176.5" enable-background="new 0 207 960 176.5" xml:space="preserve">
<g id="Layer_2_1_">
</g>
<g id="Isolation_Mode">
</g>
<g id="Layer_1_2_">
	<g id="Layer_2">
	</g>
	<g>
		<g>
			<path fill="#FFFFFF" d="M35.6,217.1c-14.4,0-26.2,11.8-26.2,26.2c0,11,21.9,44.4,26.2,44.4c4.4,0,26.2-33.6,26.2-44.4
				C61.8,228.9,50,217.1,35.6,217.1z M35.6,250.6c-4.3,0-7.9-3.6-7.9-7.9s3.6-7.9,7.9-7.9s7.9,3.6,7.9,7.9
				C43.6,247,40,250.6,35.6,250.6z"/>
			<g id="Layer_1_1_">
				<g>
					<g id="Map_icon.psd_1_">
						<g id="_x31__2_">
							<g>
								<path fill="#784213" d="M35.6,230.4c-7.2,0-13.2,5.8-13.2,13s5.8,13,13.2,13c7.2,0,13.2-5.8,13.2-13
									C48.8,236.2,43.1,230.4,35.6,230.4z M35.6,251.3c-4.3,0-7.9-3.6-7.9-7.9s3.6-7.9,7.9-7.9s7.9,3.6,7.9,7.9
									C43.6,247.7,40,251.3,35.6,251.3z M35.6,212.2c-17.3,0-31.4,13.9-31.4,31.4c0,13.2,26.2,52.3,31.4,52.1
									c5,0,31.4-39.4,31.4-52.1C67.1,226.1,53.2,212.2,35.6,212.2z M35.6,287.8c-4.3,0-26.2-33.4-26.2-44.4
									c0-14.4,11.8-26.2,26.2-26.2s26.2,11.8,26.2,26.2C61.8,254.2,40,287.8,35.6,287.8z"/>
							</g>
							<g>
								<path fill="#784213" d="M35.6,212.2c-17.3,0-31.4,13.9-31.4,31.4c0,13.2,26.2,52.1,31.4,52.1l0,0l0,0
									c5,0,31.4-39.4,31.4-52.1C67.1,226.1,53.2,212.2,35.6,212.2L35.6,212.2z M35.6,287.8c-4.3,0-26.2-33.4-26.2-44.4
									c0-14.4,11.8-26.2,26.2-26.2s26.2,11.8,26.2,26.2C61.8,254.2,40,287.8,35.6,287.8L35.6,287.8L35.6,287.8L35.6,287.8z
									 M35.6,230.4c-7.2,0-13,5.8-13,13s5.8,13,13,13s13-5.8,13-13C48.8,236.2,43.1,230.4,35.6,230.4L35.6,230.4z M35.6,251.3
									c-4.3,0-7.9-3.6-7.9-7.9s3.6-7.9,7.9-7.9s7.9,3.6,7.9,7.9C43.6,247.7,40,251.3,35.6,251.3L35.6,251.3z"/>
							</g>
						</g>
					</g>
					<text transform="matrix(1 0 0 1 26.8478 324.099)" fill="#784213" font-family="'ArialMT'" font-size="28.8">A</text>
				</g>
				<text transform="matrix(1 0 0 1 917.5874 323.4068)" fill="#784213" font-family="'ArialMT'" font-size="28.8">B</text>
				<g>
					<g>
						<path fill="none" stroke="#784213" stroke-width="1.5" stroke-miterlimit="100" stroke-dasharray="6,6" d="M69.7,310.8
							c7.2-10.1,18.5-23.5,34.8-36c18.5-14.2,30-19,34.8-20.4c7.7-2.4,16.8-3.6,16.8-3.6c3.4-0.5,6.7-0.7,9.4-1"/>
						<g>
							<polygon fill="#784213" points="154.9,265.7 152.3,263.2 164,250.1 150.1,239.3 152.3,236.4 169.3,249.6 							"/>
						</g>
					</g>
				</g>
				<g>
					<g>
						<path fill="none" stroke="#784213" stroke-width="1.5" stroke-miterlimit="100" stroke-dasharray="6,6" d="M180.1,247.2
							c8.6,2.9,19,7.4,28.8,15.6c1.7,1.4,8.6,7.2,15.6,16.8c1.9,2.6,4.1,6,13.2,24c9.6,19,9.8,20.6,13.2,25.2
							c7.9,10.8,17.5,16.3,20.4,18c13.2,7.4,26.4,8.6,34.6,8.6"/>
						<g>
							<polygon fill="#784213" points="293.6,369.5 291.2,367 304.4,355 291.7,342.8 294.4,340 309.7,355.2 							"/>
						</g>
					</g>
				</g>
				<g>
					<g>
						<path fill="none" stroke="#784213" stroke-width="1.5" stroke-miterlimit="100" stroke-dasharray="6,6" d="M321.7,354
							c26.6-4.1,36.7-15.1,40.8-21.6c1.9-3.1,3.1-6,9.6-25.2c5.5-16.6,5.5-18.5,9.6-28.8c5.5-14.2,8.4-21.4,14.4-27.6
							c7.9-7.9,16.8-10.8,25.2-13.2c14.4-4.1,27.1-2.6,35.8-1"/>
						<g>
							<polygon fill="#784213" points="442.9,249.6 441,246.5 455.6,236.7 444.8,222.8 447.7,220.6 460.9,237.6 							"/>
						</g>
					</g>
				</g>
				<g>
					<g>
						<path fill="none" stroke="#784213" stroke-width="1.5" stroke-miterlimit="100" stroke-dasharray="6,6" d="M470.5,240
							c12,6,19,13.2,22.8,18c7,8.4,10.3,17,14.4,27.6c1.2,3.1,2.9,8.2,6,18c6,19,7,23.3,10.8,32.4c3.8,9.4,6,13.7,9.6,18
							c3.1,3.6,12.7,13.4,34.6,15.4"/>
						<g>
							<polygon fill="#784213" points="555,382 552.8,379.2 567.2,368.9 556,355.2 558.8,353 572.5,369.5 							"/>
						</g>
					</g>
				</g>
				<g>
					<g>
						<path fill="none" stroke="#784213" stroke-width="1.5" stroke-miterlimit="100" stroke-dasharray="6,6" d="M584.5,368.4
							c6.7,0.7,17,1,28.8-2.4c6.2-1.7,22.1-6.2,34.8-20.4c7.2-7.9,10.3-15.4,14.4-25.2c5.5-13.2,3.6-15.6,9.6-34.8
							c5-15.8,7.4-23.8,14.4-31.2c7.2-7.7,15.1-11,20.4-13.2c12-5,23.3-5.5,31-5"/>
						<g>
							<polygon fill="#784213" points="725.6,251.1 723.2,248.2 736.4,236.4 723.5,224.2 726.1,221.6 741.7,236.4 							"/>
						</g>
					</g>
				</g>
				<g>
					<g>
						<path fill="none" stroke="#784213" stroke-width="1.5" stroke-miterlimit="100" stroke-dasharray="6,6" d="M750.1,235.2
							c4.6-0.2,13.2,0.2,22.8,4.8c4.8,2.2,10.6,6,20.4,18c14.4,17.5,11,23.3,22.8,34.8c1.9,1.7,10.8,10.6,25.2,15.6
							c10.6,3.8,19.7,4.3,32.4,4.8c5.5,0.2,10.3,0.2,14.2,0.2"/>
						<g>
							<polygon fill="#784213" points="876.1,328 873.5,325.5 886.4,313.2 873.2,301.2 875.9,298.5 891.7,313.2 							"/>
						</g>
					</g>
				</g>
			</g>
		</g>
		<path fill="#FFFFFF" d="M925.4,217.2c-14.4,0-26.2,11.8-26.2,26.2c0,11,21.9,44.4,26.2,44.4c4.4,0,26.2-33.6,26.2-44.4
			C951.6,229.1,939.8,217.2,925.4,217.2z M925.4,251.4c-4.3,0-7.9-3.6-7.9-7.9s3.6-7.9,7.9-7.9c4.3,0,7.9,3.6,7.9,7.9
			C933.4,247.8,929.8,251.4,925.4,251.4z"/>
		<g id="Map_icon.psd_2_">
			<g id="_x31__3_">
				<g>
					<path fill="#784213" d="M925.4,211.3c-17.3,0-31.4,13.9-31.4,31.4c0,13.2,26.2,52.3,31.4,52.1c5,0,31.4-39.4,31.4-52.1
						C956.9,225.2,943,211.3,925.4,211.3z M925.4,286.9c-4.3,0-26.2-33.4-26.2-44.4c0-14.4,11.8-26.2,26.2-26.2s26.2,11.8,26.2,26.2
						C951.6,253.3,929.8,286.9,925.4,286.9z M925.4,229.5c-7.2,0-13.2,5.8-13.2,13s5.8,13,13.2,13s13.2-5.8,13.2-13
						C938.6,235.3,932.6,229.5,925.4,229.5z M925.4,250.4c-4.3,0-7.9-3.6-7.9-7.9s3.6-7.9,7.9-7.9c4.3,0,7.9,3.6,7.9,7.9
						C933.4,246.8,929.8,250.4,925.4,250.4z"/>
				</g>
				<g>
					<path fill="#784213" d="M925.4,211.3c-17.3,0-31.4,13.9-31.4,31.4c0,13.2,26.2,52.1,31.4,52.1l0,0l0,0c5,0,31.4-39.4,31.4-52.1
						C956.9,225.2,943,211.3,925.4,211.3L925.4,211.3z M925.4,286.9c-4.3,0-26.2-33.4-26.2-44.4c0-14.4,11.8-26.2,26.2-26.2
						s26.2,11.8,26.2,26.2C951.6,253.3,929.8,286.9,925.4,286.9L925.4,286.9L925.4,286.9L925.4,286.9z M925.4,229.5
						c-7.2,0-13.2,5.8-13.2,13s5.8,13,13.2,13c7.2,0,13.2-5.8,13.2-13C938.6,235.3,932.6,229.5,925.4,229.5L925.4,229.5z
						 M925.4,250.4c-4.3,0-7.9-3.6-7.9-7.9s3.6-7.9,7.9-7.9c4.3,0,7.9,3.6,7.9,7.9C933.4,246.8,929.8,250.4,925.4,250.4L925.4,250.4
						z"/>
				</g>
			</g>
		</g>
	</g>
</g>
<g id="Layer_4">
</g>
</svg>
