<?xml version="1.0" encoding="utf-8"?>
<!-- Generator: Adobe Illustrator 18.1.1, SVG Export Plug-In . SVG Version: 6.00 Build 0)  -->
<svg version="1.1" id="Layer_1" xmlns="http://www.w3.org/2000/svg" xmlns:xlink="http://www.w3.org/1999/xlink" x="0px" y="0px"
	 viewBox="0 189 960 179" enable-background="new 0 189 960 179" xml:space="preserve">
<g id="Layer_1_1_">
	<g>
		<g id="Map_icon.psd_1_">
			<g id="_x31__2_">
				<g>
					<path fill="#784213" d="M33.8,211.8c-7.2,0-13.2,5.8-13.2,13c0,7.2,5.8,13,13.2,13c7.2,0,13.2-5.8,13.2-13
						C47,217.6,41.3,211.8,33.8,211.8z M33.8,232.7c-4.3,0-7.9-3.6-7.9-7.9c0-4.3,3.6-7.9,7.9-7.9s7.9,3.6,7.9,7.9
						C41.8,229.1,38.2,232.7,33.8,232.7z M33.8,193.6c-17.3,0-31.4,13.9-31.4,31.4c0,13.2,26.2,52.3,31.4,52.1
						c5,0,31.4-39.4,31.4-52.1C65.3,207.5,51.4,193.6,33.8,193.6z M33.8,269.2c-4.3,0-26.2-33.4-26.2-44.4
						c0-14.4,11.8-26.2,26.2-26.2S60,210.4,60,224.8C60,235.6,38.2,269.2,33.8,269.2z"/>
				</g>
				<g>
					<path fill="#784213" d="M33.8,193.6c-17.3,0-31.4,13.9-31.4,31.4c0,13.2,26.2,52.1,31.4,52.1l0,0l0,0c5,0,31.4-39.4,31.4-52.1
						C65.3,207.5,51.4,193.6,33.8,193.6L33.8,193.6z M33.8,269.2c-4.3,0-26.2-33.4-26.2-44.4c0-14.4,11.8-26.2,26.2-26.2
						S60,210.4,60,224.8C60,235.6,38.2,269.2,33.8,269.2L33.8,269.2L33.8,269.2L33.8,269.2z M33.8,211.8c-7.2,0-13,5.8-13,13
						c0,7.2,5.8,13,13,13s13-5.8,13-13C47,217.6,41.3,211.8,33.8,211.8L33.8,211.8z M33.8,232.7c-4.3,0-7.9-3.6-7.9-7.9
						c0-4.3,3.6-7.9,7.9-7.9s7.9,3.6,7.9,7.9C41.8,229.1,38.2,232.7,33.8,232.7L33.8,232.7z"/>
				</g>
			</g>
		</g>
		<text transform="matrix(1 0 0 1 24.9873 305.5548)" fill="#784213" font-family="'ArialMT'" font-size="28.8">A</text>
	</g>
	<g>
		<g id="Map_icon.psd_2_">
			<g id="_x31__3_">
				<g>
					<path fill="#784213" d="M923,193.6c-17.3,0-31.4,13.9-31.4,31.4c0,13.2,26.2,52.3,31.4,52.1c5,0,31.4-39.4,31.4-52.1
						C954.5,207.5,940.6,193.6,923,193.6z M923,269.2c-4.3,0-26.2-33.4-26.2-44.4c0-14.4,11.8-26.2,26.2-26.2
						c14.4,0,26.2,11.8,26.2,26.2C949.2,235.6,927.4,269.2,923,269.2z M923,211.8c-7.2,0-13.2,5.8-13.2,13c0,7.2,5.8,13,13.2,13
						c7.4,0,13.2-5.8,13.2-13C936.2,217.6,930.2,211.8,923,211.8z M923,232.7c-4.3,0-7.9-3.6-7.9-7.9c0-4.3,3.6-7.9,7.9-7.9
						c4.3,0,7.9,3.6,7.9,7.9C931,229.1,927.4,232.7,923,232.7z"/>
				</g>
				<g>
					<path fill="#784213" d="M923,193.6c-17.3,0-31.4,13.9-31.4,31.4c0,13.2,26.2,52.1,31.4,52.1l0,0l0,0c5,0,31.4-39.4,31.4-52.1
						C954.5,207.5,940.6,193.6,923,193.6L923,193.6z M923,269.2c-4.3,0-26.2-33.4-26.2-44.4c0-14.4,11.8-26.2,26.2-26.2
						c14.4,0,26.2,11.8,26.2,26.2C949.2,235.6,927.4,269.2,923,269.2L923,269.2L923,269.2L923,269.2z M923,211.8
						c-7.2,0-13.2,5.8-13.2,13c0,7.2,5.8,13,13.2,13c7.2,0,13.2-5.8,13.2-13C936.2,217.6,930.2,211.8,923,211.8L923,211.8z
						 M923,232.7c-4.3,0-7.9-3.6-7.9-7.9c0-4.3,3.6-7.9,7.9-7.9c4.3,0,7.9,3.6,7.9,7.9C931,229.1,927.4,232.7,923,232.7L923,232.7z"
						/>
				</g>
			</g>
		</g>
		<text transform="matrix(1 0 0 1 915.7269 304.8626)" fill="#784213" font-family="'ArialMT'" font-size="28.8">B</text>
	</g>
	<g>
		<g>
			<path fill="none" stroke="#784213" stroke-width="1.5" stroke-miterlimit="100" stroke-dasharray="6,6" d="M67.9,292.2
				c7.2-10.1,18.5-23.5,34.8-36c18.5-14.2,30-19,34.8-20.4c7.7-2.4,16.8-3.6,16.8-3.6c3.4-0.5,6.7-0.7,9.4-1"/>
			<g>
				<polygon fill="#784213" points="153.1,247.1 150.5,244.7 162.2,231.5 148.3,220.7 150.5,217.8 167.5,231 				"/>
			</g>
		</g>
	</g>
	<g>
		<g>
			<path fill="none" stroke="#784213" stroke-width="1.5" stroke-miterlimit="100" stroke-dasharray="6,6" d="M178.3,228.6
				c8.6,2.9,19,7.4,28.8,15.6c1.7,1.4,8.6,7.2,15.6,16.8c1.9,2.6,4.1,6,13.2,24c9.6,19,9.8,20.6,13.2,25.2
				c7.9,10.8,17.5,16.3,20.4,18c13.2,7.4,26.4,8.6,34.6,8.6"/>
			<g>
				<polygon fill="#784213" points="291.8,351 289.4,348.4 302.6,336.4 289.9,324.2 292.6,321.5 307.9,336.6 				"/>
			</g>
		</g>
	</g>
	<g>
		<g>
			<path fill="none" stroke="#784213" stroke-width="1.5" stroke-miterlimit="100" stroke-dasharray="6,6" d="M319.9,335.4
				c26.6-4.1,36.7-15.1,40.8-21.6c1.9-3.1,3.1-6,9.6-25.2c5.5-16.6,5.5-18.5,9.6-28.8c5.5-14.2,8.4-21.4,14.4-27.6
				c7.9-7.9,16.8-10.8,25.2-13.2c14.4-4.1,27.1-2.6,35.8-1"/>
			<g>
				<polygon fill="#784213" points="441.1,231 439.2,227.9 453.8,218.1 443,204.2 445.9,202 459.1,219 				"/>
			</g>
		</g>
	</g>
	<g>
		<g>
			<path fill="none" stroke="#784213" stroke-width="1.5" stroke-miterlimit="100" stroke-dasharray="6,6" d="M468.7,221.4
				c12,6,19,13.2,22.8,18c7,8.4,10.3,17,14.4,27.6c1.2,3.1,2.9,8.2,6,18c6,19,7,23.3,10.8,32.4c3.8,9.4,6,13.7,9.6,18
				c3.1,3.6,12.7,13.4,34.6,15.4"/>
			<g>
				<polygon fill="#784213" points="553.2,363.5 551,360.6 565.4,350.3 554.2,336.6 557,334.5 570.7,351 				"/>
			</g>
		</g>
	</g>
	<g>
		<g>
			<path fill="none" stroke="#784213" stroke-width="1.5" stroke-miterlimit="100" stroke-dasharray="6,6" d="M582.7,349.8
				c6.7,0.7,17,1,28.8-2.4c6.2-1.7,22.1-6.2,34.8-20.4c7.2-7.9,10.3-15.4,14.4-25.2c5.5-13.2,3.6-15.6,9.6-34.8
				c5-15.8,7.4-23.8,14.4-31.2c7.2-7.7,15.1-11,20.4-13.2c12-5,23.3-5.5,31-5"/>
			<g>
				<polygon fill="#784213" points="723.8,232.5 721.4,229.6 734.6,217.8 721.7,205.6 724.3,203 739.9,217.8 				"/>
			</g>
		</g>
	</g>
	<g>
		<g>
			<path fill="none" stroke="#784213" stroke-width="1.5" stroke-miterlimit="100" stroke-dasharray="6,6" d="M748.3,216.6
				c4.6-0.2,13.2,0.2,22.8,4.8c4.8,2.2,10.6,6,20.4,18c14.4,17.5,11,23.3,22.8,34.8c1.9,1.7,10.8,10.6,25.2,15.6
				c10.6,3.8,19.7,4.3,32.4,4.8c5.5,0.2,10.3,0.2,14.2,0.2"/>
			<g>
				<polygon fill="#784213" points="874.3,309.5 871.7,306.9 884.6,294.6 871.4,282.6 874.1,280 889.9,294.6 				"/>
			</g>
		</g>
	</g>
</g>
<g id="Layer_2">
</g>
</svg>
