<?xml version="1.0" encoding="utf-8"?>
<!-- Generator: Adobe Illustrator 18.1.1, SVG Export Plug-In . SVG Version: 6.00 Build 0)  -->
<svg version="1.1" id="Layer_1" xmlns="http://www.w3.org/2000/svg" xmlns:xlink="http://www.w3.org/1999/xlink" x="0px" y="0px"
	 viewBox="13 0 390 560" enable-background="new 13 0 390 560" xml:space="preserve">
<path id="path-1" fill="#0047B2" d="M172.4,553.3c-9.4,0-17.5-7.6-17.5-17s7.6-17,17.5-17h17.5v-34.9
	C104.3,476.7,32.2,413.5,17,331.5h34.5C67.2,400,133,451.1,207.4,451.1c73.9,0,140.2-51.1,155.9-119.6h34.5
	c-15.2,82-87.8,145.2-172.9,152.8v34.9h17.5c9.4,0,17.5,7.6,17.5,17s-7.6,17-17.5,17L172.4,553.3L172.4,553.3z M206.9,416.6
	c-66.8,0-121-53.3-121-119.6V126.3c0-65.9,54.2-119.6,121-119.6s121,53.3,121,119.6V297C327.9,363.3,273.7,416.6,206.9,416.6z
	 M293.4,126.3c0-47-38.5-85.6-86.5-85.6s-86.5,38.1-86.5,85.6V297c0,47,38.5,85.6,86.5,85.6s86.5-38.1,86.5-85.6V126.3z"/>
</svg>
